<ttFont>
          <CharString index="0">
            -80 89 -36 102 118 vvcurveto
            88 24 65 37 38 vhcurveto
            8 20 21 5 21 hhcurveto
            94 65 -91 -132 -115 -39 -91 -75 -84 hvcurveto
            23 -72 rlineto
            333 hlineto
            1 hlineto
            8 65 6 91 -2 52 -77 8 rcurveline
            -36 -110 -125 -11 rlineto
            105 71 69 108 111 vvcurveto
            169 -143 128 -190 -193 -139 -129 -178 -116 70 -107 110 -57 vhcurveto
            -127 11 -36 110 -77 -8 return
          </CharString>
          <CharString index="1">
            333 hlineto
            23 72 rlineto
            -107 callsubr
            -2 -52 5 -91 9 -65 rlinecurve
            return
          </CharString>
          <CharString index="2">
            rmoveto
            171 157 112 230 230 -156 130 -179 -184 -146 -138 -218 -229 161 -117 176 hvcurveto
            18 97 -93 callsubr
            return
          </CharString>
          <CharString index="3">
            33 22 34 43 15 38 -32 callgsubr
            -32 -19 -33 -43 -20 -41 22 -31 -8 callgsubr
            return
          </CharString>
          <CharString index="4">
            25 hmoveto
            -106 callsubr
            return
          </CharString>
          <CharString index="5">
            30 -177 rlineto
            -20 -24 -40 -10 -53 hhcurveto
            -30 -24 6 10 -18 hvcurveto
            -8 9 -4 14 15 vvcurveto
            46 43 41 76 23 vhcurveto
            20 41 -4 45 -38 72 -33 24 rlinecurve
            -89 -54 -59 -112 -116 vvcurveto
            return
          </CharString>
          <CharString index="6">
            35 -95 -29 -14 -27 -14 -24 -17 rlinecurve
            37 callgsubr
            339 27 callgsubr
            -72 11 -251 622 rlineto
            -167 -41 callgsubr
            return
          </CharString>
          <CharString index="7">
            -99 callgsubr
            -57 75 rlineto
            return
          </CharString>
          <CharString index="8">
            rmoveto
            89 94 42 61 45 hvcurveto
            -29 57 rlineto
            -21 -68 -47 -8 -84 hhcurveto
            -65 -61 16 20 -19 hvcurveto
            14 22 49 23 36 3 144 -25 rcurveline
            10 25 3 53 -5 32 -22 20 rcurveline
            -136 -36 -36 9 -33 17 -10 20 rlinecurve
            29 21 52 17 72 hhcurveto
            hintmask 11010000
            68 38 -8 -25 58 hvcurveto
            31 17 4 46 -3 46 -11 34 rlinecurve
            17 -33 -67 12 -76 hhcurveto
            -144 -99 -61 -89 -49 36 -40 56 -16 hvcurveto
            -60 -20 -40 -41 -46 vvcurveto
            hintmask 11100000
            -91 92 -62 136 vhcurveto
            return
          </CharString>
          <CharString index="9">
            263 646 rmoveto
            15 -41 -214 -527 -31 -14 -28 -15 -25 -17 rlinecurve
            37 callgsubr
            280 27 callgsubr
            -86 14 rlineto
            return
          </CharString>
          <CharString index="10">
            -24 callgsubr
            -40 34 -44 18 -43 -23 -33 -36 -8 136 callsubr
            46 -15 rrcurveto
            return
          </CharString>
          <CharString index="11">
            -64 callsubr
            hintmask 1010001100000000
            34 609 640 callgsubr
            -61 callgsubr
            hintmask 0110100100000000
            33 callsubr
            hintmask 1010100100000000
            64 callgsubr
            hintmask 1010100010000000
            173 callgsubr
            hintmask 1010100100000000
            -6 callgsubr
            hintmask 1011000100000000
            18 -102 rlineto
            100 hlineto
            hintmask 1010100100000000
            13 callgsubr
            return
          </CharString>
          <CharString index="12">
            -204 4 callgsubr
            350 hlineto
            1 53 -90 callgsubr
            return
          </CharString>
          <CharString index="13">
            77 34 51 69 64 vvcurveto
            40 -24 44 -58 14 vhcurveto
            return
          </CharString>
          <CharString index="14">
            rmoveto
            -107 -58 111 158 109 28 83 37 34 hvcurveto
            8 20 21 5 21 hhcurveto
            109 49 -131 -135 -105 -30 -89 -43 -40 hvcurveto
            170 callsubr
            return
          </CharString>
          <CharString index="15">
            18 0 99.5 -99.5 212 72.5 95 80.5 202 -33 callgsubr
            return
          </CharString>
          <CharString index="16">
            -104 callgsubr
            -29 callsubr
            return
          </CharString>
          <CharString index="17">
            -62 callgsubr
            hstemhm
            return
          </CharString>
          <CharString index="18" raw="1">
            f8935b0a f74606a0 b50b 
          </CharString>
          <CharString index="19">
            -62 -8 callsubr
            return
          </CharString>
          <CharString index="20">
            -83 callgsubr
            177 hlineto
            return
          </CharString>
          <CharString index="21">
            rmoveto
            -85 callgsubr
          </CharString>
          <CharString index="22">
            40 -82 callsubr
            47 -15 rrcurveto
            return
          </CharString>
          <CharString index="23">
            -24 19 -42 17 -36 6 -27 -35 rcurveline
            26 -59 15 -60 -54 vvcurveto
            -92 -38 -44 -88 -35 -28 8 12 -20 vhcurveto
            63 52 rlineto
            15 55 10 45 35 vvcurveto
            return
          </CharString>
          <CharString index="24">
            hmoveto
            -97 callsubr
            return
          </CharString>
          <CharString index="25">
            -58 callsubr
            -39 34 645 callsubr
            -33 -36 346 callsubr
            31 -26 return
          </CharString>
          <CharString index="26">
            vstem
            -105 callgsubr
            return
          </CharString>
          <CharString index="27">
            -75 callsubr
            6 -32 rcurveline
            return
          </CharString>
          <CharString index="28">
            608 callsubr
            248 111.5 -111.5 181 hintmask 00110100
            248 166 rmoveto
            -86 vlineto
            hintmask 10010100
            28 callgsubr
            hintmask 01010100
            -39 callgsubr
            hintmask 10011000
            -47 callsubr
            hintmask 00110100
            83 -36 73 -195 -178 vvcurveto
            return
          </CharString>
          <CharString index="29">
            -67 48 rlineto
            return
          </CharString>
          <CharString index="30">
            266 -20 rmoveto
            131 114 92 166 170 -119 92 -130 -131 -120 -92 -165 -166 122 -97 133 hvcurveto
            5 90 rmoveto
            -61 -24 77 94 66 10 58 20 28 hvcurveto
            7 9 15 4 15 hhcurveto
            59 22 -80 -97 -67 -8 -63 -29 -22 hvcurveto
            -4 -11 -8 -1 -9 hhcurveto
            return
          </CharString>
          <CharString index="31">
            454 callgsubr
            hstem
            11 546 callgsubr
            vstem
            -102 callgsubr
            return
          </CharString>
          <CharString index="32">
            -31 -14 -29 -16 -25 -17 return
          </CharString>
          <CharString index="33">
            24 callsubr
            hintmask 11011000
            213 callsubr
            hintmask 10111000
            322 58 callgsubr
            -296 vlineto
            hintmask 10111000
            -218 135 -103 175 vhcurveto
            return
          </CharString>
          <CharString index="34">
            57 -75 rlineto
            return
          </CharString>
          <CharString index="35">
            -61 callsubr
            -114 85 -93 127 vhcurveto
            return
          </CharString>
          <CharString index="36">
            rmoveto
            61 -23 -68 callsubr
            return
          </CharString>
          <CharString index="37">
            -33 callsubr
            172 -243 hlineto
            return
          </CharString>
          <CharString index="38">
            51 39 -6 45 -29 104 callgsubr
            return
          </CharString>
          <CharString index="39">
            -4 callsubr
            -24 -17 callsubr
            return
          </CharString>
          <CharString index="40">
            100 60 rlineto
            35 -14 15 -33 -28 vvcurveto
            -40 -34 -45 -67 -85 -63 73 124 -58 vhcurveto
            -80 -51 rlineto
            -237 108 132 -47 90 hhcurveto
            return
          </CharString>
          <CharString index="41">
            rmoveto
            52 -37 70 43 97 149 -118 55 rlinecurve
            -97 -44 2 -37 39 -28 -7 -51 -38 -50 rlinecurve
            endchar
          </CharString>
          <CharString index="42">
            -78 callgsubr
            hstemhm
            return
          </CharString>
          <CharString index="43">
            -92 callsubr
            hstemhm
            109 493 callgsubr
            return
          </CharString>
          <CharString index="44">
            -64 51 -69 77 -34 vhcurveto
            return
          </CharString>
          <CharString index="45">
            -91 callsubr
            -67 48 rlineto
            return
          </CharString>
          <CharString index="46">
            82 -61 56 -59 -49 -60 -40 -58 -32 vhcurveto
            21 -56 100 13 rlineto
            -32 -90 -7 -35 -42 vvcurveto
            return
          </CharString>
          <CharString index="47">
            0 -21 511 -78 callgsubr
            return
          </CharString>
          <CharString index="48">
            -27 callgsubr
            hstemhm
            109 493 callgsubr
            hintmask 1010001010000000
            584 callsubr
            hintmask 1010010010000000
            -61 callgsubr
            hintmask 0110100010000000
            33 callsubr
            hintmask 1010100010000000
            64 callgsubr
            hintmask 1010100001000000
            173 callgsubr
            hintmask 1010100010000000
            -6 callgsubr
            hintmask 1011000010000000
            18 -102 rlineto
            100 hlineto
            hintmask 1010100010000000
            13 callgsubr
            return
          </CharString>
          <CharString index="49">
            21 26 31 14 43 -12 43 return
          </CharString>
          <CharString index="50">
            385 callsubr
            171 181 37 124 -20 21 -20 return
          </CharString>
          <CharString index="51">
            -115 hlineto
            -88 46 rlineto
            -131 29 -91 -91 -100 vvcurveto
            return
          </CharString>
          <CharString index="52">
            -9 callsubr
            23 -53 240 -41 5 -51 -20 -23 -18 rlinecurve
            return
          </CharString>
          <CharString index="53">
            186 callsubr
            291 363 callsubr
            hintmask 01000111
            -88 14 rlineto
            248 vlineto
            -14 121 rlineto
            hintmask 00010111
            299 -449 rlineto
            hintmask 10000111
            160 13 5 586 272 callsubr
            -296 hlineto
            hintmask 10001011
            341 callgsubr
            hintmask 10000111
            -293 450 1 1 rlineto
            -245 hlineto
            hintmask 00101011
            -1 -53 73 -13 rlineto
            -517 vlineto
            hintmask 10000111
            -29 callgsubr
            return
          </CharString>
          <CharString index="54">
            18 15 -39 callsubr
            return
          </CharString>
          <CharString index="55">
            -30 callsubr
            6 callgsubr
            return
          </CharString>
          <CharString index="56">
            rmoveto
            -53 callsubr
            return
          </CharString>
          <CharString index="57">
            -6 9 -6 13 -6 14 rrcurveto
            102 16 49 48 56 vvcurveto
            83 184 callsubr
            return
          </CharString>
          <CharString index="58">
            rmoveto
            -12 18 -10 20 -7 22 rrcurveto
            return
          </CharString>
          <CharString index="59">
            vlineto
            -78 callsubr
            return
          </CharString>
          <CharString index="60">
            -92 -87 -100 -205 -37 hvcurveto
            -1 hlineto
            -7 108 rlineto
            137 -47 -64 60 -91 hhcurveto
            -53 -58 -23 -33 -46 hvcurveto
            14 -47 81 7 rlineto
            return
          </CharString>
          <CharString index="61">
            -25 -19 87 385 229 -85 85 hstemhm
            51 170 165 178 hintmask 10111000
            303 -19 rmoveto
            141 120 73 132 122 -94 52 -91 42 hvcurveto
            -85 39 -73 26 55 vvcurveto
            25 13 32 32 18 vhcurveto
            40 -1 39 -6 37 -15 rrcurveto
            hintmask 11011000
            39 -122 rlineto
            92 hlineto
            hintmask 10111000
            14 59 5 77 2 55 rrcurveto
            20 -54 -87 18 -73 hhcurveto
            -157 -112 -82 -123 -116 99 -53 89 -41 hvcurveto
            82 -38 65 -27 -59 vvcurveto
            -27 -15 -30 -39 -18 vhcurveto
            -37 1 -40 7 -39 14 -65 145 rcurveline
            -81 hlineto
            -13 -52 -9 -96 5 -43 -1 -2 rcurveline
            -40 68 107 -21 76 hhcurveto
            return
          </CharString>
          <CharString index="62">
            -68 -56 callgsubr
            return
          </CharString>
          <CharString index="63">
            50 -20 28 49 rlineto
            26 52 111 -86 85 hhcurveto
            return
          </CharString>
          <CharString index="64">
            -19 28 rlineto
            -59 -40 -5 -15 -30 hvcurveto
            6 -65 rlineto
            return
          </CharString>
          <CharString index="65">
            -18 17 -12 21 22 vvcurveto
            42 41 21 31 -13 vhcurveto
            12 -15 6 -18 -19 vvcurveto
            return
          </CharString>
          <CharString index="66">
            19 rmoveto
            -91 callsubr
            return
          </CharString>
          <CharString index="67">
            52 callgsubr
            -80 -54 -57 -60 -45 29 -48 77 -52 hvcurveto
            58 40 rlineto
            -17 callgsubr
            return
          </CharString>
          <CharString index="68">
            391 callgsubr
            361 callsubr
            return
          </CharString>
          <CharString index="69">
            43 -28 20 -26 -27 vvcurveto
            return
          </CharString>
          <CharString index="70">
            75 -27 rlineto
            -48 72 -11 -101 -78 hhcurveto
            -75 -37 95 495 callgsubr
            -100 -33 return
          </CharString>
          <CharString index="71">
            -100 3 -21 316 181 -68 68 21 -20 hstemhm
            16 492 hintmask 11001000
            16 33 rmoveto
            61 -51 57 43 331 -43 14 59 11 54 11 63 rlinecurve
            -55 -14 -47 -13 -144 -28 rlineto
            hintmask 10011000
            253 344 -56 53 rlineto
            hintmask 11001000
            -33 -21 rlineto
            -372 -6 hlineto
            -7 -53 2 -71 10 -51 rrcurveto
            92 hlineto
            hintmask 10101000
            39 97 104 16 rlineto
            return
          </CharString>
          <CharString index="72">
            -166 -20 85 -64 -21 443 77 hstemhm
            33 542 callsubr
            -137 159 hintmask 01110100
            226 -20 rmoveto
            128 77 67 88 hvcurveto
            155 -242 8 83 vvcurveto
            15 7 17 33 10 vhcurveto
            14 16 -2 -3 16 hvcurveto
            31 -91 rlineto
            hintmask 01101000
            88 hlineto
            15 45 5 48 -5 47 rrcurveto
            23 -44 -60 10 -51 hhcurveto
            hintmask 10110100
            -129 -92 -63 -94 hvcurveto
            -151 239 -7 -83 vvcurveto
            -13 -7 -15 -11 -9 vhcurveto
            -63 22 -63 36 -54 42 -57 -131 rcurveline
            hintmask 01110100
            -38 72 74 -16 63 hhcurveto
            return
          </CharString>
          <CharString index="73">
            56 -75 rlineto
            78 -176 hlineto
            -38 -37 -84 -14 -65 47 rrcurveto
            36 38 19 46 38 vvcurveto
            return
          </CharString>
          <CharString index="74">
            55 -34 49 -55 43 vhcurveto
            return
          </CharString>
          <CharString index="75">
            hhcurveto
            29 29 6 14 27 hvcurveto
            return
          </CharString>
          <CharString index="76">
            41 34 52 94 57 hvcurveto
            -45 38 -87 -71 rlineto
            55 -106 -68 33 -31 hhcurveto
            -39 -36 -52 -87 -58 hvcurveto
            54 -40 rlineto
            36 34 26 24 19 36 118 -82 51 hhcurveto
            return
          </CharString>
          <CharString index="77">
            hlineto
            -38 callsubr
            return
          </CharString>
          <CharString index="78">
            511 vlineto
            return
          </CharString>
          <CharString index="79">
            21 42 rlineto
            return
          </CharString>
          <CharString index="80">
            -73 callsubr
            198 -168 hlineto
            -6 0 -5 -2 -5 vhcurveto
            -133 1 -34 -80 return
          </CharString>
          <CharString index="81">
            346 -9 rmoveto
            124 60 88 88 17 -2 18 -5 19 hvcurveto
            41 -18 34 -2 26 10 rrcurveto
            return
          </CharString>
          <CharString index="82">
            161 42 -3 -63 -96 -65 -98 10 rlinecurve
            -61 90 -74 1 -35 -135 47 -33 45 -25 48 -13 rlinecurve
            127 -198 120 87 -123 104 rlineto
            return
          </CharString>
          <CharString index="83">
            -45 callsubr
            hstemhm
            return
          </CharString>
          <CharString index="84">
            rmoveto
            107 67 79 107 19 hvcurveto
            -123 64 rlineto
            -77 -14 -38 -40 -59 hhcurveto
            -53 -43 34 82 -41 hvcurveto
            -71 -58 rlineto
            -127 54 98 -64 97 hhcurveto
            endchar
          </CharString>
          <CharString index="85">
            rmoveto
            -97 callsubr
            return
          </CharString>
          <CharString index="86">
            rmoveto
            60 -43 33 102 108 hhcurveto
            33 31 -7 -17 33 hvcurveto
            -59 vlineto
            -42 -62 -87 -31 -66 14 rrcurveto
            return
          </CharString>
          <CharString index="87">
            0 53 -53 68 -68 83 callsubr
            return
          </CharString>
          <CharString index="88">
            -57 613 rmoveto
            return
          </CharString>
          <CharString index="89">
            33 375 callgsubr
            191 163 callsubr
            hintmask 11101100
            224 184 rmoveto
            -13 18 -12 23 -10 25 rrcurveto
            104 22 46 55 64 449 callsubr
            -262 hlineto
            -43 -60 -80 -37 -75 5 rrcurveto
            hintmask 11011100
            -281 429 rmoveto
            hintmask 11101100
            79 callgsubr
            40 -95 67 -79 65 -40 rlinecurve
            return
          </CharString>
          <CharString index="90">
            18 -51 20 -41 -5 rlinecurve
            return
          </CharString>
          <CharString index="91">
            186 callsubr
            334 363 callsubr
            hintmask 01001100
            -84 13 411 callsubr
            168 314 33 15 488 callgsubr
            -257 hlineto
            hintmask 10010100
            -1 -53 71 -11 -125 -249 rlineto
            -6 hlineto
            -28 87 rlineto
            hintmask 10001100
            -87 163 19 10 17 10 16 11 363 callgsubr
            -288 hlineto
            hintmask 00110100
            -1 -53 64 -10 188 -354 rlineto
            -168 vlineto
            hintmask 10001100
            -30 -13 -28 -15 -24 -17 rrcurveto
            return
          </CharString>
          <CharString index="92">
            rmoveto
            148 -137 118 2 150 147 -68 61 -135 -120 -133 120 rlineto
            endchar
          </CharString>
          <CharString index="93">
            215 0 -21 35 -21 136 134 42 464 callgsubr
            172 137 hintmask 0111110011100000
            213 284 91 callgsubr
            hintmask 0111100111100000
            -270 329 rmoveto
            hintmask 1011110011100000
            100 callsubr
            114 8 8 1 1 8 vhcurveto
            113 callgsubr
            hintmask 0111110011100000
            90 callgsubr
            hintmask 0111101011100000
            -28 callsubr
            hintmask 0111110011100000
            -64 callgsubr
            -876 hlineto
            return
          </CharString>
          <CharString index="94">
            hlineto
            hintmask 11011010
            -53 callgsubr
            hintmask 11101010
            -73 callsubr
            return
          </CharString>
          <CharString index="95">
            238 0 -21 42 -21 302 149 39 -65 callsubr
            64 185 callgsubr
            173 136 hintmask 0111101100000000
            233 284 2 callsubr
            -32 hhcurveto
            -21 -17 7 14 -12 hvcurveto
            hintmask 0111011100000000
            -290 329 rmoveto
            hintmask 1011101110000000
            -73 callsubr
            64 -144 hlineto
            -71 53 -74 63 -50 vhcurveto
            8 -6 8 -6 7 -5 -181 -125 rcurveline
            116 -95 228 172 rlineto
            -115 vlineto
            -104 callgsubr
            235 vlineto
            49 52 58 39 31 hhcurveto
            21 11 -15 -17 -35 -53 -60 -80 -55 hvcurveto
            hintmask 0111101110000000
            105 -120 rlineto
            102 66 62 78 87 vvcurveto
            105 -89 115 -108 -39 -38 -15 -24 -35 vhcurveto
            78 -48 callsubr
            439 hlineto
            21 42 -57 75 rlineto
            -898 hlineto
            return
          </CharString>
          <CharString index="96">
            -229 -216 -70 callgsubr
            return
          </CharString>
          <CharString index="97">
            5 callsubr
            -70 vlineto
            return
          </CharString>
          <CharString index="98">
            rmoveto
            110 -197 61 return
          </CharString>
          <CharString index="99">
            46 22 rlineto
            return
          </CharString>
          <CharString index="100">
            41 -189 232 callgsubr
            -101 -37 12 -84 -46 -24 359 callgsubr
            221 hlineto
            return
          </CharString>
          <CharString index="101">
            -55 callgsubr
            endchar
          </CharString>
          <CharString index="102">
            -45 callgsubr
            178 hlineto
            return
          </CharString>
          <CharString index="103">
            111 197 -3 33 return
          </CharString>
          <CharString index="104">
            rmoveto
            179 -160 60 63 -149 140 rlineto
            49 -51 -40 19 -45 hhcurveto
            -46 -49 -20 -45 -52 hvcurveto
            93 -96 rlineto
            endchar
          </CharString>
          <CharString index="105">
            511 16 callgsubr
            return
          </CharString>
          <CharString index="106">
            -37 31 -19 22 -2 29 return
          </CharString>
          <CharString index="107">
            -101 callgsubr
            hintmask 01011011
            -181 209 -69 callgsubr
            77 -38 98 -54 66 hvcurveto
            -9 callgsubr
            hintmask 00110111
            -87 callgsubr
            hintmask 01010111
            -102 callsubr
            hintmask 01011011
            317 callgsubr
            return
          </CharString>
          <CharString index="108">
            -229 -101 callgsubr
            return
          </CharString>
          <CharString index="109">
            rmoveto
            206 226 callsubr
            201 -236 hlineto
            -25 -22 -29 -14 return
          </CharString>
          <CharString index="110">
            356 0 47 -47 650 -636 -21 589 68 -47 47 -32 32 hstemhm
            118 510 callsubr
            452 169.5 hintmask 01000011
            344 callgsubr
            292 hlineto
            hintmask 10000011
            1 47 -85 21 3 235 -15 174 rlineto
            hintmask 00100011
            175 -484 128 23 176 465 -14 -178 rlineto
            hintmask 01000011
            1 -224 -31 -14 -29 -15 -25 -18 rlinecurve
            37 callgsubr
            343 hlineto
            hintmask 10000111
            1 47 -92 23 -8 501 32 14 488 callgsubr
            -258 hlineto
            -175 -470 rlineto
            hintmask 01000011
            -168 469 1 1 rlineto
            -296 hlineto
            hintmask 00001011
            -1 -47 rlineto
            hintmask 00010011
            84 -21 rlineto
            hintmask 01000011
            -12 -502 -33 -14 -29 -16 -26 -18 rlinecurve
            endchar
          </CharString>
          <CharString index="111">
            rmoveto
            92 67 63 84 95 -90 120 -145 148 callsubr
            hvcurveto
            -95 116 32 callsubr
            -13 -290 60 callsubr
            hintmask 1101100101000000
            44 33 26 callsubr
            448 hlineto
            hintmask 1110010101000000
            -28 callsubr
            hintmask 1110100101000000
            -64 callgsubr
            -737 347 callgsubr
            rlineto
            hintmask 1110100011000000
            197 callsubr
            endchar
          </CharString>
          <CharString index="112">
            16 callsubr
            17 255 callgsubr
            return
          </CharString>
          <CharString index="113">
            -105 callsubr
            endchar
          </CharString>
          <CharString index="114">
            -9 15 callsubr
            return
          </CharString>
          <CharString index="115">
            85 81 37 52 39 hvcurveto
            -73 116 rlineto
            -43 -43 -67 -29 -72 hhcurveto
            -60 -55 20 45 -47 hvcurveto
            -41 -50 rlineto
            -104 59 101 -44 93 hhcurveto
            return
          </CharString>
          <CharString index="116">
            -75 75 -38 47 51 vvcurveto
            58 48 32 59 29 33 -8 -16 32 vhcurveto
            -125 73 112 -69 139 callgsubr
            return
          </CharString>
          <CharString index="117">
            452 callsubr
            546 callsubr
            -38 15 -31 -19 -33 -44 -21 -41 23 -31 50 -38 33 -13 rrcurveto
            return
          </CharString>
          <CharString index="118">
            -519 250 callgsubr
            return
          </CharString>
          <CharString index="119">
            rmoveto
            47 -81 83 35 92 33 84 32 rlinecurve
            -62 124 rlineto
            return
          </CharString>
          <CharString index="120">
            107 0 92 176 78 -78 402 -359 35 222 102 -87 87 28 callsubr
            242 189 hintmask 10100011
            381 268 rmoveto
            hintmask 10010011
            43 43 rlineto
            hintmask 11001011
            -6 35 rlineto
            -128 222 hlineto
            hintmask 10000111
            126 15 rlineto
            71 -46 45 -105 -104 vvcurveto
            -116 -55 -120 -120 -20 -23 3 7 -24 vhcurveto
            hintmask 10100011
            166 vlineto
            -266 -236 525 callgsubr
            161 -118 172 -231 -112 -108 -2 -6 -113 hvcurveto
            -1 -53 71 -10 rlineto
            hintmask 11000011
            -253 -53 vlineto
            hintmask 10100011
            -43 -43 6 -35 rlineto
            90 -189 hlineto
            215 callgsubr
          </CharString>
          <CharString index="121">
            16 492 callgsubr
            26 148 53 235 callgsubr
            hintmask 11010111
            57 callgsubr
            hintmask 11111011
            311 callsubr
            17 14 -10 -10 8 hvcurveto
            12 -12 82 76 rlineto
            60 -34 -61 44 -66 hhcurveto
            -38 -33 -14 -23 -30 hvcurveto
            90 528 callgsubr
            return
          </CharString>
          <CharString index="122">
            11 callgsubr
            13 -20 return
          </CharString>
          <CharString index="123">
            63 -42 38 87 86 hhcurveto
            18 return
          </CharString>
          <CharString index="124">
            175 callsubr
            379 callgsubr
            hintmask 10001110
            24 32 -30 callgsubr
            hintmask 01001110
            234 callgsubr
            hintmask 10001110
            -95 callsubr
            hintmask 10010110
            -1 -53 rlineto
            hintmask 10100110
            130 callgsubr
            hintmask 10001110
            206 413 callgsubr
            -518 vlineto
            hintmask 10001110
            215 callgsubr
          </CharString>
          <CharString index="125">
            68 0 89 219 72 -72 362 -102 102 -87 87 28 callsubr
            163 180 -157 186 hintmask 11001110
            386 583 rmoveto
            41 -12 26 -49 -44 vvcurveto
            -49 -34 -49 -84 vhcurveto
            -45 hlineto
            hintmask 10010101
            188 vlineto
            -266 -536 186 callsubr
            352 hlineto
            206 74 92 92 77 -52 69 -101 20 hvcurveto
            hintmask 10100110
            85 19 39 71 59 vvcurveto
            84 -82 87 -174 -88 -155 -3 -5 -95 vhcurveto
            -1 -53 71 -10 rlineto
            -520 vlineto
            hintmask 10010101
            -29 callgsubr
            336 53 rmoveto
            -70 8 rlineto
            hintmask 10100101
            215 74 vlineto
            69 43 -63 -57 hvcurveto
            hintmask 10010101
            -55 -37 -56 -79 8 vhcurveto
            endchar
          </CharString>
          <CharString index="126">
            -73 callsubr
            128 -52 callsubr
            return
          </CharString>
          <CharString index="127">
            -12 rmoveto
            24 26 4 7 23 hvcurveto
            45 -184 93 27 13 41 -77 155 25 20 21 27 10 23 rlinecurve
            -111 123 -62 -27 5 -52 -54 -26 -70 -6 -31 11 rlinecurve
            -15 16 -6 20 18 vvcurveto
            48 38 45 101 26 32 -3 -6 34 vhcurveto
            -6 143 rlineto
            9 -43 -46 4 -34 hhcurveto
            hintmask 11110010
            -38 -33 -5 -9 -28 hvcurveto
            -17 15 -11 18 19 vvcurveto
            43 47 26 68 vhcurveto
            hintmask 11101000
            45 52 -12 -26 54 hvcurveto
            3 143 rlineto
            27 -60 -61 14 -61 hhcurveto
            -139 -86 -70 -94 -55 30 -45 57 -45 hvcurveto
            hintmask 11100110
            -44 -37 -20 -53 -50 vvcurveto
            -79 49 -66 64 -42 vhcurveto
            -34 51 60 -20 57 hhcurveto
            endchar
          </CharString>
          <CharString index="128">
            0 -21 35 -21 497 -92 callgsubr
            398 callsubr
            226 callgsubr
            146 160 hintmask 01100111
            -19 callsubr
            hintmask 01110011
            432 callgsubr
            -157 423 callsubr
            37 rlineto
            320 -48 callsubr
            213 return
          </CharString>
          <CharString index="129">
            35 47 -1 callsubr
            rlinecurve
            return
          </CharString>
          <CharString index="130">
            -80 callsubr
            571 hlineto
            1 hlineto
            12 67 4 109 -2 70 -103 9 rcurveline
            -45 -145 -178 -17 rlineto
            490 -100 callgsubr
            return
          </CharString>
          <CharString index="131">
            rmoveto
            149 120 77 233 hvcurveto
            92 callsubr
            return
          </CharString>
          <CharString index="132">
            208 callgsubr
            136 34 58 85 78 vvcurveto
            return
          </CharString>
          <CharString index="133">
            rlineto
            59 41 29 34 65 vvcurveto
            130 226 callsubr
            return
          </CharString>
          <CharString index="134">
            -64 -52 -84 -45 -102 hhcurveto
            -19 -12 2 4 -15 hvcurveto
            -12 10 -7 18 15 vvcurveto
            44 53 33 78 -28 vhcurveto
            32 41 -67 105 return
          </CharString>
          <CharString index="135">
            hstemhm
            109 181 return
          </CharString>
          <CharString index="136">
            38 callgsubr
            endchar
          </CharString>
          <CharString index="137">
            -11 rmoveto
            hintmask 11101000
            136 100 80 107 69 -41 54 -71 45 hvcurveto
            hintmask 11110000
            35 33 23 44 47 vvcurveto
            107 -118 103 -135 -73 -96 -31 -59 -65 vhcurveto
            93 -139 62 52 84 49 66 13 rlinecurve
            25 -16 12 -25 -23 vvcurveto
            -33 -22 -31 -40 -21 vhcurveto
            -1 hlineto
            -51 9 -80 -16 -45 -37 85 -137 rcurveline
            hintmask 11101000
            142 55 rlineto
            44 -12 21 -25 -30 vvcurveto
            -52 -63 -43 -78 -18 -17 2 5 -18 vhcurveto
            -46 76 -50 -4 -59 -138 25 -23 50 -31 46 -16 rlinecurve
            173 -220 77 52 -1 45 -134 116 rlineto
            hintmask 11110000
            -1 7 8 0 8 hhcurveto
            endchar
          </CharString>
          <CharString index="138">
            vvcurveto
            70 -45 83 -113 38 76 callgsubr
            return
          </CharString>
          <CharString index="139">
            rmoveto
            57 -39 49 78 77 hhcurveto
            25 27 -10 -18 16 hvcurveto
            6 -70 -84 -61 -77 24 rrcurveto
            return
          </CharString>
          <CharString index="140">
            8 59 6 92 -2 57 -99 8 rcurveline
            return
          </CharString>
          <CharString index="141">
            rmoveto
            107 82 79 107 19 hvcurveto
            -123 64 rlineto
            -77 -14 -53 -40 -59 hhcurveto
            -53 -58 34 82 -41 hvcurveto
            -71 -58 rlineto
            -127 54 113 -64 97 hhcurveto
            -33 171 rmoveto
            31 21 33 42 14 36 -20 26 -41 38 -36 15 -31 -18 -31 -43 -20 -38 21 -30 48 -36 32 -13 rrcurveto
            endchar
          </CharString>
          <CharString index="142">
            24 callgsubr
            -157 rlineto
            return
          </CharString>
          <CharString index="143">
            vlineto
            114 356 callgsubr
            return
          </CharString>
          <CharString index="144">
            350 rmoveto
            hintmask 0101010011000000
            53 -82 rlineto
            82 hlineto
            -14 -27 -7 -26 -29 vvcurveto
            -119 116 -68 91 38 30 12 40 86 vhcurveto
            5 -36 -47 -54 -35 -33 140 -71 rcurveline
            hintmask 1001010011000000
            134 137 -125 188 -121 hhcurveto
            -45 -54 -27 -36 -88 hvcurveto
            -8 45 28 69 48 38 rrcurveto
            218 hlineto
            21 42 -57 96 rlineto
            hintmask 0101011001000000
            -232 hlineto
            -16 19 -8 22 17 vvcurveto
            42 47 26 67 vhcurveto
            hintmask 0110010100000000
            46 52 -12 -26 54 hvcurveto
            3 143 rlineto
            27 -60 -61 14 -61 hhcurveto
            -139 -83 -73 -89 -40 17 -43 38 -41 hvcurveto
            -134 hlineto
            endchar
          </CharString>
          <CharString index="145">
            -73 callsubr
            629 -86 -70 446 callsubr
            13 -8 13 -7 14 -6 -96 -46 rcurveline
            -64 100 rlineto
            62 -39 -85 44 -80 hhcurveto
            -87 -73 -51 -80 -83 80 -49 102 -11 hvcurveto
            25 68 rlineto
            -48 12 -20 28 27 vvcurveto
            20 11 17 19 9 vhcurveto
            return
          </CharString>
          <CharString index="146">
            -71 17 -59 -11 -43 -26 rrcurveto
            -23 17 -8 14 16 vvcurveto
            34 38 13 39 vhcurveto
            84 hlineto
            591 callgsubr
            return
          </CharString>
          <CharString index="147">
            128 0 53 556 245 callgsubr
            hintmask 10110000
            196 callgsubr
            hintmask 11010000
            -1 -53 65 -10 -209 -225 rlineto
            hintmask 10110000
            524 callsubr
            hintmask 11010000
            -1 -53 -3 callgsubr
            hintmask 10110000
            215 callgsubr
          </CharString>
          <CharString index="148">
            197 -20 -69 callgsubr
            hvcurveto
            return
          </CharString>
          <CharString index="149">
            219 callsubr
            hintmask 1010101100101000
            47 -21 48 -41 40 vhcurveto
            117 -281 250 callgsubr
            hintmask 1010101010001000
            -28 callsubr
            hintmask 1010101100001000
            -64 callgsubr
            -1043 hlineto
            hintmask 1010101001001000
            -53 callgsubr
            hintmask 1010101100001000
            -73 callsubr
            772 -102 -577 hlineto
            hintmask 1010011100001000
            -13 callgsubr
            hintmask 1001001100101000
            160 callsubr
            return
          </CharString>
          <CharString index="150">
            rmoveto
            -53 240 -41 5 -51 -20 -24 -18 rlinecurve
            -3 -33 512 callgsubr
            rlineto
            endchar
          </CharString>
          <CharString index="151">
            61 callsubr
            -136 hlineto
            return
          </CharString>
          <CharString index="152">
            134 callsubr
            298 19 470 callgsubr
            215 hlineto
            26 44 -59 92 rlineto
            -380 hlineto
            hintmask 10110010
            -13 callgsubr
            hintmask 11010010
            160 callsubr
            hintmask 11000110
            -355 594 168 callsubr
            return
          </CharString>
          <CharString index="153">
            549 50 callgsubr
          </CharString>
          <CharString index="154">
            141 callgsubr
            hstem
            19 87 -81 callsubr
            return
          </CharString>
          <CharString index="155">
            -83 83 -39 52 49 vvcurveto
            48 35 33 73 vhcurveto
            99 158 callgsubr
            return
          </CharString>
          <CharString index="156">
            3 25 callsubr
            return
          </CharString>
          <CharString index="157">
            82 53 43 62 31 32 -11 -21 29 vhcurveto
            24 73 rlineto
            58 -38 -51 25 -52 hhcurveto
            -64 -66 -40 -75 -26 hvcurveto
            -80 215 -114 71 -181 -72 60 -159 rcurveline
            return
          </CharString>
          <CharString index="158">
            120 callgsubr
            61 82 rlineto
            return
          </CharString>
          <CharString index="159">
            193 -48 callgsubr
            -9 -315 rmoveto
            -104 callsubr
            return
          </CharString>
          <CharString index="160">
            -38 -33 105 callsubr
            return
          </CharString>
          <CharString index="161">
            -45 rlineto
            -18 12 -9 14 14 vvcurveto
            21 23 17 return
          </CharString>
          <CharString index="162">
            hintmask 10010000
            14 293 callsubr
            hintmask 00110000
            229 callsubr
            hintmask 01010000
            -568 vlineto
            hintmask 10010000
            409 callsubr
            rrcurveto
            return
          </CharString>
          <CharString index="163">
            191 252 rmoveto
            59 20 61 36 34 vhcurveto
            31 1 29 -6 26 -12 rrcurveto
            -271 vlineto
            -6 -16 -15 -2 -12 hhcurveto
            -64 -35 64 78 hvcurveto
            264 -269 418 callsubr
            -15 -10 10 14 hvcurveto
            return
          </CharString>
          <CharString index="164">
            -89 callgsubr
            hintmask 11010000
            return
          </CharString>
          <CharString index="165">
            161 110 513 callgsubr
            34 -92 callgsubr
            317 131 -131 352 -160 160 hintmask 1010100100100000
            -19 callsubr
            hintmask 1010110000100000
            -73 callsubr
            509 -82 hlineto
            hintmask 1010110001000000
            -314 hlineto
            hintmask 1101110001000000
            -80 vlineto
            75 -27 rlineto
            -48 72 -13 -91 -77 hhcurveto
            -75 -36 85 495 callgsubr
            -100 -33 rlineto
            -206 55 96 -158 148 hhcurveto
            hintmask 1110110010100000
            98 56 69 79 45 -18 42 -36 36 hvcurveto
            115 -188 hlineto
            return
          </CharString>
          <CharString index="166">
            146 0 -21 344 421 callsubr
            168 349 561 callgsubr
            535 -87 hlineto
            -71 2 -71 -25 -48 -52 555 callsubr
            -96 62 -98 142 -96 hvcurveto
            97 61 rlineto
            -85 57 -48 50 62 vvcurveto
            57 37 33 46 12 12 -2 -5 12 vhcurveto
            -15 375 callsubr
            97 37 72 58 27 rlinecurve
            return
          </CharString>
          <CharString index="167">
            rmoveto
            45 41 7 14 38 hvcurveto
            -26 127 rlineto
            -12 -62 -55 -9 -54 hhcurveto
            -90 -70 25 86 -38 hvcurveto
            return
          </CharString>
          <CharString index="168">
            581 callsubr
            -3 0 -4 -1 -3 vhcurveto
            return
          </CharString>
          <CharString index="169">
            71 51 102 51 64 6 rrcurveto
            17 -16 9 -25 -20 vvcurveto
            -51 -59 -70 -100 -18 vhcurveto
            -50 52 -46 -9 -50 -151 29 -20 58 -15 48 -4 rlinecurve
            239 -167 69 54 -1 45 -151 91 rlineto
            115 44 50 86 77 vvcurveto
            return
          </CharString>
          <CharString index="170">
            36 -39 -81 callgsubr
            return
          </CharString>
          <CharString index="171">
            rmoveto
            34 23 35 46 15 39 -21 28 -45 41 -39 16 -34 -19 -34 -46 -21 -43 23 -32 52 -39 35 -14 rrcurveto
            endchar
          </CharString>
          <CharString index="172">
            603 callgsubr
            92 callgsubr
            return
          </CharString>
          <CharString index="173">
            95 callgsubr
            -82 -52 -60 -63 -49 31 -50 84 -57 vhcurveto
            57 47 return
          </CharString>
          <CharString index="174">
            hstemhm
            371 121 -89 127 94 160 return
          </CharString>
          <CharString index="175">
            106 -41 41 346 callgsubr
            return
          </CharString>
          <CharString index="176">
            -102 -406 rmoveto
            31 -24 58 2 65 17 30 18 rlinecurve
            -89 276 rlineto
            -66 39 58 -43 59 hhcurveto
            116 104 123 147 148 -93 103 -137 -137 -95 -111 -160 -67 -1 -49 -2 -107 hvcurveto
            endchar
          </CharString>
          <CharString index="177">
            640 callgsubr
            -61 callgsubr
            hintmask 0110100100000000
            33 callsubr
            hintmask 1010100100000000
            64 callgsubr
            hintmask 1010100010000000
            173 callgsubr
            hintmask 1010100100000000
            -6 callgsubr
            hintmask 1011000100000000
            18 -102 rlineto
            100 hlineto
            hintmask 1010100100000000
            13 callgsubr
            endchar
          </CharString>
          <CharString index="178">
            -58 callgsubr
            -91 -61 -62 -78 -62 40 -58 return
          </CharString>
          <CharString index="179">
            rmoveto
            54 -43 110 89 56 130 -73 98 rlinecurve
            -128 -57 rlineto
            -48 vlineto
            54 -13 -17 -72 -56 -84 rrcurveto
            endchar
          </CharString>
          <CharString index="180">
            104 139 112 7 243 callgsubr
            6 136 152 160 return
          </CharString>
          <CharString index="181">
            408 callsubr
            rlinecurve
            65 callsubr
            return
          </CharString>
          <CharString index="182">
            -12 rmoveto
            151 -62 rlineto
            17 19 19 34 36 vvcurveto
            53 -46 38 -58 41 vhcurveto
            -80 57 60 50 rlineto
            hintmask 11101000
            73 60 38 60 62 vvcurveto
            99 -94 143 -141 -102 -50 -75 -63 -50 33 -52 92 -50 vhcurveto
            54 44 -62 45 27 102 79 -10 rlinecurve
            21 -21 5 -27 -16 vvcurveto
            -42 -34 -42 -59 -46 vhcurveto
            -121 -94 7 -71 rlineto
            hintmask 11110000
            137 -99 rlineto
            32 -23 24 -18 -29 vvcurveto
            -21 -13 -21 -9 -11 vhcurveto
            endchar
          </CharString>
          <CharString index="183">
            -52 callsubr
            -19 -51 return
          </CharString>
          <CharString index="184">
            526 callgsubr
            hintmask 01011000
            16 35 125 callgsubr
            return
          </CharString>
          <CharString index="185">
            100 -161 17 -26 12 -17 19 -12 rlinecurve
            171 hlineto
            8 47 -22 12 -12 12 -12 11 rlinecurve
            -125 176 146 179 -47 67 -70 -2 -74 -13 -58 -21 rlinecurve
            5 -49 52 -9 -110 -146 rlineto
            return
          </CharString>
          <CharString index="186">
            432 callgsubr
            -192 444 callgsubr
            return
          </CharString>
          <CharString index="187">
            152 51 rlineto
            -58 -3 -60 -47 -77 hhcurveto
            -83 -93 54 96 -61 hvcurveto
            -68 -57 return
          </CharString>
          <CharString index="188">
            69 64 vvcurveto
            40 -24 44 -58 14 vhcurveto
            -39 -16 -29 -36 return
          </CharString>
          <CharString index="189">
            hhcurveto
            53 callsubr
            return
          </CharString>
          <CharString index="190">
            79 518 134 callgsubr
            return
          </CharString>
          <CharString index="191">
            336 rmoveto
            39 -20 18 70 59 hhcurveto
            40 22 -32 -44 9 hvcurveto
            -43 -30 -57 -12 -28 9 rrcurveto
            32 -354 rmoveto
            128 93 95 151 164 -109 191 -143 -85 -55 -69 -71 -54 31 -56 50 -44 hvcurveto
            -34 39 50 -26 50 hhcurveto
            13 14 2 4 14 hvcurveto
            -61 -18 -42 -34 -58 hhcurveto
            -104 -109 103 326 -53 hvcurveto
            -123 -39 rlineto
            -254 34 156 -294 227 hhcurveto
            endchar
          </CharString>
          <CharString index="192">
            -215 130 8 6 319 callgsubr
            return
          </CharString>
          <CharString index="193">
            hhcurveto
            32 32 7 14 29 hvcurveto
            -73 -60 callgsubr
            -291 hlineto
            return
          </CharString>
          <CharString index="194">
            40 105 324 callgsubr
            return
          </CharString>
          <CharString index="195">
            rmoveto
            33 36 -10 -20 37 hvcurveto
            -75 vlineto
            -9 -14 -12 -12 -13 -11 -93 141 642 callgsubr
            0 7 hhcurveto
            -98 -172 rmoveto
            -34 46 8 63 42 36 98 -144 rcurveline
            -40 -14 -43 0 -31 13 rrcurveto
            return
          </CharString>
          <CharString index="196">
            104 callgsubr
            endchar
          </CharString>
          <CharString index="197">
            -214 130 8 5 8 6 7 5 rlinecurve
            280 -199 hlineto
            -62 callsubr
            178 hlineto
            return
          </CharString>
          <CharString index="198">
            rmoveto
            87 68 -154 188 -108 -95 60 -48 59 -59 56 -54 rlinecurve
            return
          </CharString>
          <CharString index="199">
            293 vlineto
            32 14 29 16 24 17 -6 32 rcurveline
            -286 hlineto
            return
          </CharString>
          <CharString index="200">
            334 -329 107 91 rlineto
            45 vlineto
            return
          </CharString>
          <CharString index="201">
            -114 87 -116 204 -114 return
          </CharString>
          <CharString index="202">
            13 -16 4 -27 -28 vvcurveto
            1 return
          </CharString>
          <CharString index="203">
            159 callgsubr
            -35 -5 -40 4 -42 628 callsubr
            38 24 rlineto
            return
          </CharString>
          <CharString index="204">
            -66 8 30 -41 46 hhcurveto
            return
          </CharString>
          <CharString index="205">
            -73 callsubr
            612 430 callsubr
            -115 95 -95 104 -47 hvcurveto
            -74 -32 -71 -47 -56 hhcurveto
            -35 31 38 51 75 12 1 38 rcurveline
            -113 77 -47 -10 -39 -24 -22 -32 rlinecurve
            -38 14 -17 26 27 vvcurveto
            27 15 25 36 14 vhcurveto
            20 -9 30 -25 22 -19 44 56 rcurveline
            52 -52 -51 51 -73 hhcurveto
            -79 -59 -59 -74 -72 55 -76 128 -31 hvcurveto
            return
          </CharString>
          <CharString index="206">
            130 -20 100 529 53 -32 32 hstemhm
            84 181 273 125 hintmask 10111000
            return
          </CharString>
          <CharString index="207">
            -73 callsubr
            44 -144 hlineto
            -125 164 -140 return
          </CharString>
          <CharString index="208">
            -23 23 -11 30 27 vvcurveto
            54 41 54 92 vhcurveto
            return
          </CharString>
          <CharString index="209">
            163 0 53 -53 67 -67 79 -71 -21 622 53 -32 32 hstemhm
            109 125 326 510 callsubr
            hintmask 10000111
            return
          </CharString>
          <CharString index="210">
            767 12 callsubr
            return
          </CharString>
          <CharString index="211">
            -81 83 callgsubr
            return
          </CharString>
          <CharString index="212">
            -14 -23 -30 hvcurveto
            295 callgsubr
            return
          </CharString>
          <CharString index="213">
            157 153 160 return
          </CharString>
          <CharString index="214">
            -237 rmoveto
            hintmask 10100000
            53 callgsubr
            hintmask 01100000
            36 63 rlineto
            -67 hlineto
            -63 -76 27 -45 294 callsubr
            rlinecurve
            endchar
          </CharString>
          <CharString index="215">
            rmoveto
            62 -57 151 114 157 -114 59 57 -155 165 rlineto
            -120 hlineto
            endchar
          </CharString>
          <CharString index="216">
            -54 50 -70 -4 -70 -12 -58 -21 rlinecurve
            5 -50 74 -13 rlineto
            return
          </CharString>
          <CharString index="217">
            17 callgsubr
            -23 -19 rlinecurve
            return
          </CharString>
          <CharString index="218">
            -1 87 callgsubr
            return
          </CharString>
          <CharString index="219">
            -87 callgsubr
            hintmask 0101011110000000
            -102 callsubr
            return
          </CharString>
          <CharString index="220">
            -19 hlineto
            -7 hlineto
            2 -50 rlineto
            33 hlineto
            39 20 -23 -24 -14 -7 -15 -17 -8 hvcurveto
            -34 12 -46 29 -38 30 -24 -96 rcurveline
            return
          </CharString>
          <CharString index="221">
            168 51 rlineto
            -61 -5 -73 -44 -77 hhcurveto
            -96 -87 62 98 -64 hvcurveto
            -71 -57 return
          </CharString>
          <CharString index="222">
            549 -31 callgsubr
            endchar
          </CharString>
          <CharString index="223">
            rmoveto
            71 hlineto
            31 33 rlineto
            -39 50 -24 30 48 vvcurveto
            hintmask 00110000
            136 callgsubr
            hintmask 01010000
            192 callsubr
            rrcurveto
            hintmask 10010000
            76 -125 3 -8 3 -7 3 -8 rlinecurve
            endchar
          </CharString>
          <CharString index="224">
            208 callsubr
            494 callsubr
            hintmask 10100000
            -98 callsubr
            hintmask 01100000
            87 callsubr
            hintmask 10100000
            35 -95 -29 -14 -27 -14 -24 -17 rlinecurve
            37 callgsubr
            339 27 callgsubr
            -72 11 -251 622 rlineto
            return
          </CharString>
          <CharString index="225">
            475 rmoveto
            hintmask 11011000
            57 -90 rlineto
            77 hlineto
            -4 -17 -1 -17 -15 vvcurveto
            -157 144 -79 83 45 42 24 35 81 vhcurveto
            5 -36 -37 -61 -37 -33 149 -77 rcurveline
            147 143 -142 199 -122 hhcurveto
            -49 -73 -31 -37 -89 hvcurveto
            -6 35 16 70 30 50 rrcurveto
            262 hlineto
            21 42 -57 90 rlineto
            -516 hlineto
            endchar
          </CharString>
          <CharString index="226">
            -73 callsubr
            397 -45 -135 hlineto
            -125 -58 -60 -66 -87 99 -90 134 -44 hvcurveto
            return
          </CharString>
          <CharString index="227">
            -73 callsubr
            401 -45 -140 hlineto
            -130 -60 -60 -66 -87 102 -90 140 -44 hvcurveto
            return
          </CharString>
          <CharString index="228">
            rmoveto
            42 26 33 40 36 38 -26 -71 -37 -11 -35 -19 -30 vhcurveto
            -74 20 -36 52 52 vvcurveto
            return
          </CharString>
          <CharString index="229">
            148 callgsubr
            hstemhm
            19 87 return
          </CharString>
          <CharString index="230">
            -192 -83 callgsubr
            return
          </CharString>
          <CharString index="231">
            18 -46 118 10 rlineto
            return
          </CharString>
          <CharString index="232">
            409 callsubr
            rrcurveto
            172 516 rmoveto
            38 27 34 40 21 42 -28 41 -41 38 -44 23 -40 -29 -34 -43 -25 -48 30 -37 44 -34 45 -20 rrcurveto
            endchar
          </CharString>
          <CharString index="233">
            21 41 -66 104 -64 13 -54 -8 -41 -20 rlinecurve
            -17 18 -10 21 23 vvcurveto
            46 40 27 44 -9 vhcurveto
            24 -21 18 -28 18 -29 62 49 rcurveline
            94 -53 -58 64 -93 hhcurveto
            return
          </CharString>
          <CharString index="234">
            90 151 rlineto
            33 -48 -56 16 -45 hhcurveto
            -111 -93 -92 -124 hvcurveto
            return
          </CharString>
          <CharString index="235">
            1 1 8 hvcurveto
            266 callsubr
            return
          </CharString>
          <CharString index="236">
            -9 callsubr
            24 rlineto
            return
          </CharString>
          <CharString index="237">
            4 -65 callsubr
            return
          </CharString>
          <CharString index="238">
            -192 -183 35 callgsubr
          </CharString>
          <CharString index="239">
            -112 hlineto
            9 90 -27 107 -104 54 -68 34 rcurveline
            -50 25 -20 22 25 69 -93 13 rcurveline
            -44 -93 28 -90 95 -38 56 -22 rcurveline
            17 -6 8 -4 11 -9 -3 -9 rcurveline
            9 -23 -36 5 -33 hhcurveto
            -52 hlineto
            -54 -27 32 74 -16 hvcurveto
            -88 -27 rlineto
            -129 7 100 -61 97 hhcurveto
            84 hlineto
            57 26 -2 -44 11 hvcurveto
            return
          </CharString>
          <CharString index="240">
            -38 -49 -56 -23 -42 3 rrcurveto
            return
          </CharString>
          <CharString index="241">
            -144 19 161 120 513 callgsubr
            102 291 callsubr
            hintmask 11010010
            return
          </CharString>
          <CharString index="242">
            hlineto
            -17 383 -338 -249 -37 239 -89 -10 rcurveline
            12 -387 336 199 35 -175 rrcurveto
            return
          </CharString>
          <CharString index="243">
            -51 21 -39 32 -26 return
          </CharString>
          <CharString index="244">
            -162 222 132 -42 42 hstemhm
            33 381 hintmask 01100000
            33 312 rmoveto
            hintmask 10100000
            56 -90 rlineto
            304 hlineto
            21 42 -56 90 rlineto
            -304 hlineto
            endchar
          </CharString>
          <CharString index="245">
            -90 callgsubr
            endchar
          </CharString>
          <CharString index="246">
            47 81 -244 143 -62 -124 84 -32 92 -33 83 -35 rlinecurve
            return
          </CharString>
          <CharString index="247">
            -2 49 rlineto
            -112 hlineto
            -61 168 57 -18 51 -30 43 -42 rlinecurve
            return
          </CharString>
          <CharString index="248">
            rmoveto
            75 65 44 110 37 33 -4 -10 25 vhcurveto
            9 -11 4 -18 -18 vvcurveto
            -66 -65 -43 -116 -35 -34 6 11 -32 vhcurveto
            -1 11 0 11 12 vvcurveto
            return
          </CharString>
          <CharString index="249">
            12 callgsubr
            -2 return
          </CharString>
          <CharString index="250">
            162 callgsubr
            -83 -91 -58 -116 return
          </CharString>
          <CharString index="251">
            27 53 111 -87 85 hhcurveto
            return
          </CharString>
          <CharString index="252">
            rmoveto
            63 31 45 99 15 hvcurveto
            return
          </CharString>
          <CharString index="253">
            272 -174 rmoveto
            -18 13 -4 15 16 vvcurveto
            58 82 60 94 -3 vhcurveto
            7 -84 -89 -76 -72 1 rrcurveto
            return
          </CharString>
          <CharString index="254">
            -310 199 callsubr
            return
          </CharString>
          <CharString index="255">
            -108 -58 -76 -84 -116 125 -86 117 return
          </CharString>
          <CharString index="256">
            84 -2 26 -10 17 vhcurveto
            -35 55 -65 16 -39 1 return
          </CharString>
          <CharString index="257">
            hlineto
            -178 -60 -106 -91 return
          </CharString>
          <CharString index="258">
            hhcurveto
            -113 -64 -77 -86 -62 34 -65 61 -48 hvcurveto
            62 33 rlineto
            -19 27 -8 26 22 vvcurveto
            47 36 37 53 86 48 -101 -102 36 vhcurveto
            -108 hlineto
            return
          </CharString>
          <CharString index="259">
            hhcurveto
            -120 -79 -78 -97 -63 33 -64 61 -49 hvcurveto
            63 33 rlineto
            -15 23 -8 25 21 vvcurveto
            52 43 50 69 82 70 -76 -139 76 vhcurveto
            -102 hlineto
            return
          </CharString>
          <CharString index="260">
            44 callsubr
            endchar
          </CharString>
          <CharString index="261">
            148 -61 rmoveto
            17 12 19 21 19 vhcurveto
            96 -11 88 -18 58 -23 rrcurveto
            -40 -30 -71 -21 -63 hhcurveto
            -61 -50 18 40 hvcurveto
            154 293 rmoveto
            return
          </CharString>
          <CharString index="262">
            79 386 callgsubr
            17 -57 callsubr
            hstemhm
            19 84 return
          </CharString>
          <CharString index="263">
            rmoveto
            -24 -19 9 16 -17 hvcurveto
            -5 39 -20 38 -34 32 rrcurveto
            170 hlineto
            -54 38 -16 -80 -73 hhcurveto
            return
          </CharString>
          <CharString index="264">
            -25 134 rlineto
            -79 hlineto
            -55 -134 -31 -18 -29 -19 -25 -21 rlinecurve
            3 -54 rlineto
            73 -269 hlineto
            return
          </CharString>
          <CharString index="265">
            111 -126 199 153 rlineto
            -153 vlineto
            -104 callgsubr
            return
          </CharString>
          <CharString index="266">
            -204 -41 rlineto
            -11 11 -7 11 13 vvcurveto
            27 27 21 42 vhcurveto
            return
          </CharString>
          <CharString index="267">
            -208 56 95 -166 152 hhcurveto
            return
          </CharString>
          <CharString index="268">
            -25 -9 -26 -11 -23 -13 rrcurveto
            return
          </CharString>
          <CharString index="269">
            197 -3 33 -23 19 return
          </CharString>
          <CharString index="270">
            148 83 160 return
          </CharString>
          <CharString index="271">
            hintmask 01010100
            32 609 rmoveto
            hintmask 10100100
            77 -12 rlineto
            -518 vlineto
            hintmask 01001100
            23 callsubr
            return
          </CharString>
          <CharString index="272">
            139 195 28 -94 437 callgsubr
            rlineto
            hintmask 1111100101000000
            -45 -23 -57 -6 -57 24 rrcurveto
            252 callgsubr
            return
          </CharString>
          <CharString index="273">
            rmoveto
            -32 -35 6 17 -29 hvcurveto
            -17 21 -8 23 22 vvcurveto
            46 36 43 85 vhcurveto
            110 hlineto
            23 -24 11 -28 -26 vvcurveto
            -62 -67 -38 -77 vhcurveto
            return
          </CharString>
          <CharString index="274">
            rmoveto
            190 callsubr
            55 -49 48 -77 vhcurveto
            hintmask 11100000
            310 callgsubr
            hintmask 11010000
            241 callgsubr
          </CharString>
          <CharString index="275">
            rmoveto
            hintmask 11010010
            599 callsubr
            hintmask 11001010
            -28 callsubr
            hintmask 11010010
            -64 callgsubr
            -590 hlineto
            return
          </CharString>
          <CharString index="276">
            rmoveto
            165 85 -7 52 rlineto
            -5 -25 -32 -4 -23 hhcurveto
            -26 -12 10 33 hvcurveto
            206 84 vlineto
            return
          </CharString>
          <CharString index="277">
            -5 -14 -14 -3 -19 hhcurveto
            return
          </CharString>
          <CharString index="278">
            36 547 callgsubr
            -69 -100 callsubr
            -298 hlineto
            return
          </CharString>
          <CharString index="279">
            1 rrcurveto
            43 2 25 -34 -61 vvcurveto
            -285 return
          </CharString>
          <CharString index="280">
            rmoveto
            106 79 85 119 hvcurveto
            hintmask 0100100110000000
            136 -105 142 -129 -70 -37 -46 -67 -37 vhcurveto
            hintmask 1001100110000000
            -96 101 rlineto
            307 callgsubr
            hintmask 0010100110000000
            -143 105 -121 125 66 43 40 65 43 vhcurveto
            return
          </CharString>
          <CharString index="281">
            300 364 rmoveto
            38 38 -13 -26 41 hvcurveto
            13 -48 -19 -38 -33 -25 -99 149 642 callgsubr
            0 7 hhcurveto
            -99 -172 rmoveto
            -35 46 9 64 43 35 103 -152 rcurveline
            -5 -19 -19 -3 -18 hhcurveto
            -23 -23 4 11 -18 hvcurveto
            135 -129 rmoveto
            return
          </CharString>
          <CharString index="282">
            204 0 3 callgsubr
            return
          </CharString>
          <CharString index="283">
            -82 71 rlineto
            143 callsubr
            return
          </CharString>
          <CharString index="284">
            68 callsubr
            19 return
          </CharString>
          <CharString index="285">
            -101 callsubr
            -409 348 -9 callsubr
            24 110 callsubr
            return
          </CharString>
          <CharString index="286">
            -22 rmoveto
            81 69 49 85 51 hvcurveto
            -99 110 rlineto
            -73 -51 -50 -33 -45 hhcurveto
            -45 -33 32 46 30 15 30 56 69 hvcurveto
            164 201 -102 127 -190 -234 rlineto
            -58 -72 -22 -64 -50 vvcurveto
            -118 125 -135 134 vhcurveto
            endchar
          </CharString>
          <CharString index="287">
            501 callsubr
            -13 -35 -6 -39 3 -43 628 callsubr
            38 24 rlineto
            return
          </CharString>
          <CharString index="288">
            16 59 10 80 -4 43 rrcurveto
            24 -35 -76 37 -107 hhcurveto
            -245 -131 -176 -187 -158 96 -196 287 15 hvcurveto
            return
          </CharString>
          <CharString index="289">
            358 rmoveto
            171 callgsubr
            261 -191 -192 hlineto
            508 callgsubr
            return
          </CharString>
          <CharString index="290">
            291 -20 93 callgsubr
            return
          </CharString>
          <CharString index="291">
            -106 123 -136 vhcurveto
            return
          </CharString>
          <CharString index="292">
            rmoveto
            69 55 rlineto
            136 -92 -88 140 -130 hhcurveto
            -88 -75 -65 -82 hvcurveto
            hintmask 10100000
            -92 92 -76 86 42 39 17 38 37 vhcurveto
            -74 94 -102 -63 rlineto
            hintmask 01100000
            -8 8 -4 11 12 vvcurveto
            35 33 41 50 63 46 -64 -145 104 vhcurveto
            endchar
          </CharString>
          <CharString index="293">
            rmoveto
            37 callgsubr
            return
          </CharString>
          <CharString index="294">
            99 -147 309 callgsubr
            return
          </CharString>
          <CharString index="295">
            132 176 callgsubr
            return
          </CharString>
          <CharString index="296">
            150 46 rlineto
            -59 -69 -31 -64 -91 -79 60 87 -58 vhcurveto
            -64 -57 rlineto
            -150 100 122 -68 114 hhcurveto
            124 74 81 86 69 -47 85 -108 29 hvcurveto
            -172 -42 rlineto
            -14 10 -8 14 14 vvcurveto
            17 12 18 22 10 vhcurveto
            return
          </CharString>
          <CharString index="297">
            19 -49 rlineto
            233 hlineto
            16 98 -137 -31 -4 7 rlineto
            84 53 45 52 51 vvcurveto
            return
          </CharString>
          <CharString index="298">
            43 0 53 -53 69 -69 82 354 227 -82 82 -82 87 hstemhm
            244 181 return
          </CharString>
          <CharString index="299">
            -96 129 -114 41 -150 -94 85 -163 rcurveline
            117 77 68 -8 58 -97 return
          </CharString>
          <CharString index="300">
            -101 callsubr
            -49 -479 -43 callgsubr
            return
          </CharString>
          <CharString index="301">
            683 292 callgsubr
            -30 12 -28 -15 -26 -36 -16 -33 18 -25 41 -31 27 -10 rrcurveto
            return
          </CharString>
          <CharString index="302">
            272 callgsubr
            47 133 return
          </CharString>
          <CharString index="303">
            14 rmoveto
            107 -55 47 22 rlineto
            418 vlineto
            136 -109 143 -140 -104 -69 -76 -88 -100 90 -76 126 -52 vhcurveto
            35 82 rlineto
            -63 27 -29 42 44 vvcurveto
            51 40 36 44 -11 vhcurveto
            20 -21 5 -43 -40 vvcurveto
            endchar
          </CharString>
          <CharString index="304">
            -213 94 197 -113 175 hhcurveto
            return
          </CharString>
          <CharString index="305">
            133 48 -90 callsubr
            return
          </CharString>
          <CharString index="306">
            141 130 callsubr
            return
          </CharString>
          <CharString index="307">
            19 358 -35 callgsubr
            return
          </CharString>
          <CharString index="308">
            186 0 247 callsubr
            return
          </CharString>
          <CharString index="309">
            204 0 248 callsubr
            return
          </CharString>
          <CharString index="310">
            55.5 -55.5 57.5 return
          </CharString>
          <CharString index="311">
            -183 243 callsubr
            return
          </CharString>
          <CharString index="312">
            rmoveto
            157 89 -25 57 rlineto
            -25 -47 return
          </CharString>
          <CharString index="313">
            133 275 callsubr
            194 hlineto
            return
          </CharString>
          <CharString index="314">
            -128 159 -117 124 vhcurveto
            return
          </CharString>
          <CharString index="315">
            105 0 297 callsubr
            return
          </CharString>
          <CharString index="316">
            -20 26 512 callsubr
            return
          </CharString>
          <CharString index="317">
            0 53 -53 68 -68 return
          </CharString>
          <CharString index="318">
            116 32 144 45 141 -120 138 -138 289 -253 84 4 -92 callgsubr
            18 140 -39 147 118 141 102 127 213 268 callsubr
            return
          </CharString>
          <CharString index="319">
            214 476 callsubr
            37 35 hhcurveto
            15 10 -7 -10 11 hvcurveto
            17 -17 317 -312 107 91 rlineto
            45 vlineto
            return
          </CharString>
          <CharString index="320">
            -1 -53 83 -13 rlineto
            -306 vlineto
            -89 -14 -64 -29 -32 vhcurveto
            -16 -22 -26 -9 -35 hhcurveto
            -85 -62 54 127 hvcurveto
            return
          </CharString>
          <CharString index="321">
            284 callsubr
            196 hlineto
            21 42 -57 75 rlineto
            -665 hlineto
            endchar
          </CharString>
          <CharString index="322">
            262 callsubr
            12 -12 75 76 rlineto
            60 -34 -54 44 -66 hhcurveto
            -38 -33 -14 -23 -30 hvcurveto
            90 586 callsubr
            -668 hlineto
            return
          </CharString>
          <CharString index="323">
            43 -198 153 62 -102 183 29 19 27 25 14 27 rlinecurve
            -116 153 -101 -37 15 -96 -45 -23 -56 -5 -58 23 283 callsubr
            hlineto
            -1 2 rlineto
            return
          </CharString>
          <CharString index="324">
            22 -36 32 -31 12 -28 -15 -26 -36 -16 -33 19 -25 41 -31 27 -10 rrcurveto
            return
          </CharString>
          <CharString index="325">
            -91 131 -69 -75 -130 -48 -82 30 rlinecurve
            -14 16 -6 15 18 vvcurveto
            77 return
          </CharString>
          <CharString index="326">
            rmoveto
            54 41 21 31 27 hvcurveto
            -33 39 46 -19 53 hhcurveto
            100 59 67 79 hvcurveto
            return
          </CharString>
          <CharString index="327">
            -296 vlineto
            184 callgsubr
            return
          </CharString>
          <CharString index="328">
            -102 -20 175 170 176 return
          </CharString>
          <CharString index="329">
            -100 callgsubr
            hintmask 0111001000011000
            -1 -53 rlineto
            hintmask 0111010000011000
            77 -12 rlineto
            return
          </CharString>
          <CharString index="330">
            -76 101 callgsubr
            return
          </CharString>
          <CharString index="331">
            57 -39 27 88 334 callgsubr
            return
          </CharString>
          <CharString index="332">
            356 callsubr
            301 hlineto
            return
          </CharString>
          <CharString index="333">
            vlineto
            -68 48 rlineto
            return
          </CharString>
          <CharString index="334">
            rmoveto
            408 callgsubr
            238 -218 hlineto
            -50 -27 -48 -24 -47 616 callgsubr
            return
          </CharString>
          <CharString index="335">
            rmoveto
            20 19 3 6 18 hvcurveto
            46 -212 153 62 -108 195 27 20 26 27 15 29 rlinecurve
            return
          </CharString>
          <CharString index="336">
            316 callgsubr
            rrcurveto
            603 124 callgsubr
            return
          </CharString>
          <CharString index="337">
            63 callgsubr
            19 106 callsubr
            return
          </CharString>
          <CharString index="338">
            rmoveto
            139 callsubr
            return
          </CharString>
          <CharString index="339">
            rmoveto
            93 callsubr
            return
          </CharString>
          <CharString index="340">
            100.5 return
          </CharString>
          <CharString index="341">
            -234 519 callsubr
            -191 384 hintmask 10100000
            -191 -160 434 callgsubr
            331 hlineto
            hintmask 01100000
            47 46 rlineto
            hintmask 10100000
            -5 53 rlineto
            -266 hlineto
            -31 -43 -7 -18 -39 hvcurveto
            endchar
          </CharString>
          <CharString index="342">
            rmoveto
            -31 -31 -9 -18 -30 hvcurveto
            136 -48 callsubr
            261 460 callsubr
            -1 1 rcurveline
            97 -69 -67 51 -73 hhcurveto
            return
          </CharString>
          <CharString index="343">
            265 callsubr
            endchar
          </CharString>
          <CharString index="344">
            218 callgsubr
            -80 54 -63 66 -39 vhcurveto
            -146 -96 352 callgsubr
            return
          </CharString>
          <CharString index="345">
            74 callsubr
            499 callgsubr
            return
          </CharString>
          <CharString index="346">
            -45 -247 128 119 119 -104 -21 27 -21 156 72 191 142 -135 78 return
          </CharString>
          <CharString index="347">
            rmoveto
            -35 46 9 63 43 36 101 -150 rcurveline
            -7 -17 -19 -3 -19 hhcurveto
            -21 -24 4 11 -18 hvcurveto
            return
          </CharString>
          <CharString index="348">
            21 -48 rlineto
            136 -27 hlineto
            -23 -6 -28 -12 -17 -11 return
          </CharString>
          <CharString index="349">
            rmoveto
            78 -58 53 53 58 61 57 49 rlinecurve
            -105 77 rlineto
            return
          </CharString>
          <CharString index="350">
            -42 rlineto
            -18 285 callgsubr
            26 17 47 vhcurveto
            return
          </CharString>
          <CharString index="351">
            491 callgsubr
            -203 -163 hlineto
            return
          </CharString>
          <CharString index="352">
            -23 -4 callsubr
            return
          </CharString>
          <CharString index="353">
            51 39 -7 45 return
          </CharString>
          <CharString index="354">
            307 callsubr
            22 -20 hstemhm
            return
          </CharString>
          <CharString index="355">
            3 callgsubr
            8 628 callgsubr
            return
          </CharString>
          <CharString index="356">
            -860 -43 callgsubr
            return
          </CharString>
          <CharString index="357">
            26 callsubr
            362 -112 hlineto
            -87 53 rlineto
            hintmask 0111010001100000
            -125 26 -76 -91 -89 vvcurveto
            hintmask 1011010001100000
            475 callgsubr
            return
          </CharString>
          <CharString index="358">
            -48 callsubr
            177 hlineto
            hintmask 1010101000100000
            -28 callsubr
            hintmask 1010110000100000
            410 callgsubr
            return
          </CharString>
          <CharString index="359">
            56 -75 rlineto
            28 -241 hlineto
            -34 -74 -115 -48 -64 18 161 callgsubr
            return
          </CharString>
          <CharString index="360">
            130 131 94 28 146 35 507 callsubr
            150 90 return
          </CharString>
          <CharString index="361">
            -16 -29 -36 -7 -45 return
          </CharString>
          <CharString index="362">
            hstem
            118 132 vstem
            49 -91 rmoveto
            43 -51 rlineto
            85 38 73 86 77 vvcurveto
            51 -31 46 -67 25 vhcurveto
            -44 -24 -35 -38 -9 -53 54 -46 rcurveline
            -2 -33 -27 -44 -40 -34 rrcurveto
            return
          </CharString>
          <CharString index="363">
            -289 191 hstem
            -87 179 vstem
            13 -289 601 callsubr
            33 13 41 -10 41 -40 36 -45 19 -43 -23 -34 -37 -7 136 callsubr
            47 -15 rrcurveto
            endchar
          </CharString>
          <CharString index="364">
            281 callgsubr
            245 hlineto
            return
          </CharString>
          <CharString index="365">
            -256 rmoveto
            592 callgsubr
            52 55 42 77 46 vhcurveto
            -24 22 rlineto
            -150 -46 -77 -76 -73 618 callsubr
            endchar
          </CharString>
          <CharString index="366">
            rmoveto
            213 vlineto
            144 -205 rlineto
            -17 -26 -33 -10 -27 hhcurveto
            -19 -25 6 13 -14 hvcurveto
            return
          </CharString>
          <CharString index="367">
            rmoveto
            191 callgsubr
            return
          </CharString>
          <CharString index="368">
            67 callsubr
            142 160 return
          </CharString>
          <CharString index="369">
            106 callgsubr
            17 14 -10 -10 8 hvcurveto
            return
          </CharString>
          <CharString index="370">
            38 76 rlineto
            31 -3 19 -22 -26 vvcurveto
            -22 -16 -28 -43 -4 vhcurveto
            return
          </CharString>
          <CharString index="371">
            175 callgsubr
            vvcurveto
            return
          </CharString>
          <CharString index="372">
            -5 53 rlineto
            -300 hlineto
            -31 -43 -5 -20 -39 hvcurveto
            return
          </CharString>
          <CharString index="373">
            -112 vlineto
            -104 callgsubr
            return
          </CharString>
          <CharString index="374">
            -170 72 129 -89 122 hhcurveto
            return
          </CharString>
          <CharString index="375">
            150 58 160 return
          </CharString>
          <CharString index="376">
            -73 callsubr
            329 -115 hlineto
            -88 46 rlineto
            -137 24 -84 -89 -100 vvcurveto
            -136 155 -81 105 18 16 221 callgsubr
            return
          </CharString>
          <CharString index="377">
            -192 -182 301 callgsubr
          </CharString>
          <CharString index="378">
            -101 callsubr
            endchar
          </CharString>
          <CharString index="379">
            30 13 27 15 23 548 callsubr
            return
          </CharString>
          <CharString index="380">
            94 callsubr
            vhcurveto
            return
          </CharString>
          <CharString index="381">
            -86 -71 150 callsubr
            return
          </CharString>
          <CharString index="382">
            hlineto
            -78 callsubr
            return
          </CharString>
          <CharString index="383">
            66 callgsubr
            -45 -23 -57 -6 -57 24 rlinecurve
            101 callsubr
            return
          </CharString>
          <CharString index="384">
            133 121 15 callsubr
            67 callsubr
            return
          </CharString>
          <CharString index="385">
            -18 21 -11 25 24 vvcurveto
            50 39 43 82 vhcurveto
            116 hlineto
            20 -25 12 -28 -27 vvcurveto
            return
          </CharString>
          <CharString index="386">
            -71 callgsubr
            11 309 callsubr
            67 117 -117 160 hintmask 1100110100100000
            return
          </CharString>
          <CharString index="387">
            rcurveline
            51 callsubr
            606 callgsubr
            return
          </CharString>
          <CharString index="388">
            hhcurveto
            -128 -93 -79 -109 -63 32 -63 60 -50 hvcurveto
            63 33 rlineto
            -11 20 -6 24 20 vvcurveto
            57 48 63 86 77 94 -50 -178 116 vhcurveto
            -96 hlineto
            return
          </CharString>
          <CharString index="389">
            -73 callsubr
            32 hlineto
            -1 -7 -1 -7 -7 vvcurveto
            -55 39 -52 return
          </CharString>
          <CharString index="390">
            rlinecurve
            101 callsubr
            173 return
          </CharString>
          <CharString index="391">
            140 -48 callsubr
            return
          </CharString>
          <CharString index="392">
            378 1 callsubr
            return
          </CharString>
          <CharString index="393">
            22 -15 13 -26 -27 vvcurveto
            -44 -34 -35 -56 -58 -51 37 114 -76 vhcurveto
            -75 -57 rlineto
            -185 109 121 -37 71 hhcurveto
            85 66 51 69 23 hvcurveto
            return
          </CharString>
          <CharString index="394">
            -223 4 -21 377 113 -112 246 -184 50 hstemhm
            78 173 return
          </CharString>
          <CharString index="395">
            686 231 callsubr
            return
          </CharString>
          <CharString index="396">
            748 -55 callsubr
            return
          </CharString>
          <CharString index="397">
            140 195 148 33 -20 71 578 callgsubr
            156 return
          </CharString>
          <CharString index="398">
            -90 callsubr
            318 136 return
          </CharString>
          <CharString index="399">
            247 206 callsubr
            return
          </CharString>
          <CharString index="400">
            35 356 callsubr
            317 hlineto
            2 49 rlineto
            return
          </CharString>
          <CharString index="401">
            102 9 -5 -90 -122 -41 return
          </CharString>
          <CharString index="402">
            -73 callsubr
            346 return
          </CharString>
          <CharString index="403">
            50 -20 27 49 rlineto
            return
          </CharString>
          <CharString index="404">
            256 -84 84 return
          </CharString>
          <CharString index="405">
            578 rmoveto
            -35 -47 rlineto
            -77 34 -51 69 64 vvcurveto
            40 24 44 58 14 vhcurveto
            39 -16 29 -36 6 -45 -51 -39 rcurveline
            2 -29 19 -22 37 -31 rrcurveto
            return
          </CharString>
          <CharString index="406">
            -495 -197 402 callgsubr
            12 10 -5 -6 8 hvcurveto
            return
          </CharString>
          <CharString index="407">
            592 242 callsubr
            -351 -182 242 callsubr
            endchar
          </CharString>
          <CharString index="408">
            28 20 28 27 15 31 549 callsubr
            -101 -38 13 -88 -49 -22 -60 -7 -49 24 rlinecurve
            -20 19 -12 31 29 vvcurveto
            50 39 51 92 vhcurveto
            return
          </CharString>
          <CharString index="409">
            162 -34 124 -123 486 -144 144 37 -92 callgsubr
            22 143 293 160 10 139 return
          </CharString>
          <CharString index="410">
            -69 -19 -35 52 65 vvcurveto
            35 9 41 17 14 vhcurveto
            67 26 44 -65 -62 vvcurveto
            return
          </CharString>
          <CharString index="411">
            -20 -26 -10 -31 -31 419 callsubr
            return
          </CharString>
          <CharString index="412">
            129 callgsubr
            625 callsubr
            return
          </CharString>
          <CharString index="413">
            149 callsubr
            rrcurveto
            return
          </CharString>
          <CharString index="414">
            233 callsubr
            484.5 97 -12 -20 return
          </CharString>
          <CharString index="415">
            -42 42 hstemhm
            33 135 178 144 -56 118 return
          </CharString>
          <CharString index="416">
            -20 105 141 -32 124 -36 162 -27 27 hstemhm
            return
          </CharString>
          <CharString index="417">
            1 1 8 vhcurveto
            266 callsubr
            return
          </CharString>
          <CharString index="418">
            222 vlineto
            50 46 51 38 32 hhcurveto
            return
          </CharString>
          <CharString index="419">
            801 9 callgsubr
            return
          </CharString>
          <CharString index="420">
            172 108 455 callgsubr
            return
          </CharString>
          <CharString index="421">
            86 -77 139 -131 -87 -73 return
          </CharString>
          <CharString index="422">
            549 callgsubr
            -372 hlineto
            return
          </CharString>
          <CharString index="423">
            -73 callsubr
            125 hlineto
            return
          </CharString>
          <CharString index="424">
            0 296 callgsubr
            return
          </CharString>
          <CharString index="425">
            181 243 181 return
          </CharString>
          <CharString index="426">
            rmoveto
            8 callsubr
            return
          </CharString>
          <CharString index="427">
            rmoveto
            326 callgsubr
            return
          </CharString>
          <CharString index="428">
            218 478 rmoveto
            65 493 callsubr
            -39 -31 -53 624 callsubr
            -8 627 callgsubr
            -208 rmoveto
            100 -114 return
          </CharString>
          <CharString index="429">
            338 callgsubr
            endchar
          </CharString>
          <CharString index="430">
            -64 callgsubr
            -653 hlineto
            endchar
          </CharString>
          <CharString index="431">
            -71 callgsubr
            203 146 -141 120 hstemhm
            -317 130 254 160 hintmask 11100101
            return
          </CharString>
          <CharString index="432">
            327 callsubr
            -40 -36 -15 -23 -32 vhcurveto
            83 -48 callsubr
            428 hlineto
            return
          </CharString>
          <CharString index="433">
            104 -45 101 hhcurveto
            135 82 80 99 75 -48 89 -118 40 351 callsubr
            return
          </CharString>
          <CharString index="434">
            374 callsubr
            113 -90 102 -109 return
          </CharString>
          <CharString index="435">
            581 callsubr
            -4 617 callsubr
            1 return
          </CharString>
          <CharString index="436">
            48 -34 -48 396 callgsubr
            return
          </CharString>
          <CharString index="437">
            76 callsubr
            6 return
          </CharString>
          <CharString index="438">
            578 102 callgsubr
            return
          </CharString>
          <CharString index="439">
            100 56 275 callgsubr
            return
          </CharString>
          <CharString index="440">
            hlineto
            7 -44 33 -45 74 -50 57 47 rcurveline
            return
          </CharString>
          <CharString index="441">
            -76 70 -35 46 49 vvcurveto
            56 45 35 60 return
          </CharString>
          <CharString index="442">
            382 callsubr
            -53 return
          </CharString>
          <CharString index="443">
            hlineto
            -8 -19 -5 -21 -22 vvcurveto
            return
          </CharString>
          <CharString index="444">
            -20 97 508 97 return
          </CharString>
          <CharString index="445">
            462 callgsubr
            157 callgsubr
            -339 hlineto
            return
          </CharString>
          <CharString index="446">
            136 152 -78 callgsubr
            23 -20 hstemhm
            124.5 157 622 callsubr
            511 callgsubr
            return
          </CharString>
          <CharString index="447">
            -176 rmoveto
            36 15 41 38 20 26 -14 36 -33 42 -31 21 -32 -13 -48 -36 -21 -30 20 -38 31 -43 31 -18 rrcurveto
            endchar
          </CharString>
          <CharString index="448">
            117 -75 75 426 callgsubr
            return
          </CharString>
          <CharString index="449">
            -71 54 -62 62 -38 vhcurveto
            541 callsubr
            return
          </CharString>
          <CharString index="450">
            -270 540 callgsubr
            520 callgsubr
            return
          </CharString>
          <CharString index="451">
            48 -18 60 -41 47 vhcurveto
            return
          </CharString>
          <CharString index="452">
            -117 hlineto
            -134 60 return
          </CharString>
          <CharString index="453">
            -7 -51 21 -39 return
          </CharString>
          <CharString index="454">
            -43 callgsubr
            hintmask 1001100011000000
            -43 callsubr
            return
          </CharString>
          <CharString index="455">
            109 1 48 90 54 hhcurveto
            32 21 -31 -37 -59 -53 -93 -118 -87 hvcurveto
            122 -103 rlineto
            138 99 51 106 87 vvcurveto
            return
          </CharString>
          <CharString index="456">
            -21 140 73 callsubr
            return
          </CharString>
          <CharString index="457">
            -223 -43 callgsubr
            return
          </CharString>
          <CharString index="458">
            hvcurveto
            204 callsubr
            return
          </CharString>
          <CharString index="459">
            rmoveto
            88 -62 167 181 rlineto
            79 vlineto
            -165 183 -83 -56 return
          </CharString>
          <CharString index="460">
            63 46 60 94 vhcurveto
            192 181 hlineto
            -68 48 rlineto
            217 hlineto
            return
          </CharString>
          <CharString index="461">
            52 callgsubr
            -61 -46 -33 -42 -18 hvcurveto
            return
          </CharString>
          <CharString index="462">
            -37 -72 -87 -39 -74 7 rrcurveto
            endchar
          </CharString>
          <CharString index="463">
            rmoveto
            2 -35 rlineto
            return
          </CharString>
          <CharString index="464">
            138 -138 405.5 -382.5 140 173.5 54.5 hintmask 11100110
            return
          </CharString>
          <CharString index="465">
            398 146 rmoveto
            43 -23 22 -50 -47 vvcurveto
            -62 -36 -61 -63 -31 -25 14 32 -28 vhcurveto
            33 56 36 68 49 73 rrcurveto
            return
          </CharString>
          <CharString index="466">
            680 563 callsubr
            -27 -15 -26 -36 -16 -33 18 -25 41 -31 27 -10 rrcurveto
            return
          </CharString>
          <CharString index="467">
            -20 callgsubr
            160 callsubr
            return
          </CharString>
          <CharString index="468">
            -75 vlineto
            -104 callgsubr
            return
          </CharString>
          <CharString index="469">
            vlineto
            161 callsubr
            return
          </CharString>
          <CharString index="470">
            27 callgsubr
            rlineto
            return
          </CharString>
          <CharString index="471">
            208 197 rmoveto
            59 -42 29 103 114 hhcurveto
            31 31 -8 -16 31 hvcurveto
            -70 vlineto
            -46 -56 -86 -31 -62 19 rrcurveto
            return
          </CharString>
          <CharString index="472">
            -37 -29 -19 -42 -41 vvcurveto
            -107 131 -80 557 callgsubr
            347 vlineto
            return
          </CharString>
          <CharString index="473">
            324 135 callgsubr
            return
          </CharString>
          <CharString index="474">
            vvcurveto
            122 -94 52 -91 42 vhcurveto
            -85 39 -73 26 55 vvcurveto
            25 13 32 32 18 vhcurveto
            40 -1 39 -6 37 -15 rrcurveto
            return
          </CharString>
          <CharString index="475">
            221 callsubr
            hstem
            19 86 313 85 vstem
            return
          </CharString>
          <CharString index="476">
            494 callgsubr
            302 451 callgsubr
            return
          </CharString>
          <CharString index="477">
            220 callsubr
            327 hlineto
            return
          </CharString>
          <CharString index="478">
            62 -98 174 28 19 25 26 14 29 rlinecurve
            -110 140 return
          </CharString>
          <CharString index="479">
            -35 -11 -37 -22 -15 vhcurveto
            -39 -76 rmoveto
            147 92 77 96 hvcurveto
            return
          </CharString>
          <CharString index="480">
            hintmask 01100000
            -19 callsubr
            hintmask 10100000
            -73 callsubr
            return
          </CharString>
          <CharString index="481">
            112 -117 rlineto
            103 68 63 82 94 vvcurveto
            return
          </CharString>
          <CharString index="482">
            -32 -8 -38 -44 vvcurveto
            118 -74 39 24 1 return
          </CharString>
          <CharString index="483">
            hhcurveto
            -42 -56 -13 -44 -43 hvcurveto
            90 -109 98 return
          </CharString>
          <CharString index="484">
            -24 50 rlineto
            -79 -47 -55 22 52 vvcurveto
            return
          </CharString>
          <CharString index="485">
            196 vlineto
            56 53 50 26 49 hhcurveto
            return
          </CharString>
          <CharString index="486">
            -31 -27 21 51 -7 hvcurveto
            -99 -6 rlineto
            return
          </CharString>
          <CharString index="487">
            -96 69 -93 641 callgsubr
            return
          </CharString>
          <CharString index="488">
            -73 callsubr
            120 hlineto
            9 return
          </CharString>
          <CharString index="489">
            rmoveto
            47 -2 34 -46 8 return
          </CharString>
          <CharString index="490">
            399 callgsubr
            rlineto
            return
          </CharString>
          <CharString index="491">
            0 -21 92 120 return
          </CharString>
          <CharString index="492">
            168 -168 return
          </CharString>
          <CharString index="493">
            vhcurveto
            46 -48 callsubr
            300 hlineto
            hintmask 1010101001000000
            -28 callsubr
            hintmask 1011001001000000
            -64 callgsubr
            -837 hlineto
            endchar
          </CharString>
          <CharString index="494">
            -73 callsubr
            413 522 callsubr
            -82 58 -69 72 -44 vhcurveto
            return
          </CharString>
          <CharString index="495">
            240 -266 hlineto
            -64 -49 202 callgsubr
            return
          </CharString>
          <CharString index="496">
            140 282 132 506 callgsubr
            67 137 166 144 -64 120 return
          </CharString>
          <CharString index="497">
            420 callsubr
            endchar
          </CharString>
          <CharString index="498">
            -100 callgsubr
            hintmask 1001000001100000
            -1 -53 rlineto
            hintmask 1010000001100000
            77 -12 rlineto
            return
          </CharString>
          <CharString index="499">
            -101 -37 13 -88 -49 -22 -59 -8 -50 24 rlinecurve
            -21 20 -11 31 27 vvcurveto
            52 39 51 92 vhcurveto
            173 hlineto
            return
          </CharString>
          <CharString index="500">
            -73 callsubr
            631 -30 callsubr
            -34 -30 -22 -84 -14 vhcurveto
            -41 -7 -50 -2 -50 9 rrcurveto
            return
          </CharString>
          <CharString index="501">
            -29 callgsubr
            413 -255 -43 callgsubr
            return
          </CharString>
          <CharString index="502">
            149 -122 114 -175 -54 -47 -11 -19 -40 vhcurveto
            609 callgsubr
            return
          </CharString>
          <CharString index="503">
            53 -43 38 97 87 hhcurveto
            17 619 callsubr
            return
          </CharString>
          <CharString index="504">
            138 -102 263 451 callgsubr
            return
          </CharString>
          <CharString index="505">
            126.5 return
          </CharString>
          <CharString index="506">
            -65 callsubr
            374 160 hintmask 11010110
            -19 callsubr
            hintmask 11011010
            -73 callsubr
            374 return
          </CharString>
          <CharString index="507">
            53 -128 -89 104 -101 119 -91 41 -141 -98 rlinecurve
            75 -134 93 57 61 15 73 -73 rlinecurve
            return
          </CharString>
          <CharString index="508">
            498 callgsubr
            220 65 -53 53 -32 32 return
          </CharString>
          <CharString index="509">
            -82 71 rlineto
            120 callgsubr
            return
          </CharString>
          <CharString index="510">
            297 callsubr
            414 628 callgsubr
            return
          </CharString>
          <CharString index="511">
            47 29 51 24 23 -6 -11 22 vhcurveto
            22 return
          </CharString>
          <CharString index="512">
            rmoveto
            267 callsubr
            return
          </CharString>
          <CharString index="513">
            -90 callsubr
            18 168 return
          </CharString>
          <CharString index="514">
            -2 284 callgsubr
          </CharString>
          <CharString index="515">
            32 -28 56 -15 47 -1 return
          </CharString>
          <CharString index="516">
            -26 -9 -27 -12 -23 -13 return
          </CharString>
          <CharString index="517">
            132 -118 118 return
          </CharString>
          <CharString index="518">
            rlineto
            202 vlineto
            return
          </CharString>
          <CharString index="519">
            vlineto
            -69 48 rlineto
            return
          </CharString>
          <CharString index="520">
            135 -135 402.5 -389.5 128 233 123 hintmask 0100110011000000
            return
          </CharString>
          <CharString index="521">
            460 callsubr
            -53 49 rcurveline
            return
          </CharString>
          <CharString index="522">
            42 31 26 callsubr
            362 -112 hlineto
            -87 53 rlineto
            return
          </CharString>
          <CharString index="523">
            263 callgsubr
            -178 544 callsubr
            return
          </CharString>
          <CharString index="524">
            -37 -35 -5 -10 -31 hvcurveto
            -11 12 -5 12 12 268 callgsubr
            240 602 callgsubr
            return
          </CharString>
          <CharString index="525">
            rmoveto
            133 74 532 callsubr
            return
          </CharString>
          <CharString index="526">
            447 callsubr
            10 -6 10 -5 return
          </CharString>
          <CharString index="527">
            111 68 callgsubr
            return
          </CharString>
          <CharString index="528">
            144 503 callgsubr
            18 return
          </CharString>
          <CharString index="529">
            296 callgsubr
            -116 568 -437 129 return
          </CharString>
          <CharString index="530">
            444 callgsubr
            61 return
          </CharString>
          <CharString index="531">
            7 -4 6 -4 7 -3 -129 -83 rcurveline
            115 -86 return
          </CharString>
          <CharString index="532">
            rmoveto
            81 75 48 111 10 hvcurveto
            return
          </CharString>
          <CharString index="533">
            117 -42 626 callgsubr
            return
          </CharString>
          <CharString index="534">
            95 callgsubr
            -61 return
          </CharString>
          <CharString index="535">
            16 vvcurveto
            26 13 25 25 16 vhcurveto
            return
          </CharString>
          <CharString index="536">
            -125 164 -140 113 return
          </CharString>
          <CharString index="537">
            -86 -70 150 callsubr
            return
          </CharString>
          <CharString index="538">
            434 callgsubr
            365 hlineto
            return
          </CharString>
          <CharString index="539">
            hhcurveto
            22 24 -12 -25 26 hvcurveto
            return
          </CharString>
          <CharString index="540">
            29 27 6 12 24 return
          </CharString>
          <CharString index="541">
            -64 64 -53 53 return
          </CharString>
          <CharString index="542">
            480 callgsubr
            vhcurveto
            -369 hlineto
            return
          </CharString>
          <CharString index="543">
            259 -255 110 79 rlineto
            28 vlineto
            -142 85 8 6 319 callgsubr
            280 return
          </CharString>
          <CharString index="544">
            116 203 82 callgsubr
            37 154 -80 139 return
          </CharString>
          <CharString index="545">
            169 133 return
          </CharString>
          <CharString index="546">
            rmoveto
            61 -23 rlineto
            hintmask 10111000
            -68 callsubr
            endchar
          </CharString>
          <CharString index="547">
            -36 -36 -20 -47 -55 vvcurveto
            -168 191 -150 229 -27 vhcurveto
            31 98 rlineto
            -185 return
          </CharString>
          <CharString index="548">
            -1 180 -159 -21 269 124 -124 138 -56 42 140 146 hstemhm
            return
          </CharString>
          <CharString index="549">
            405 355 rmoveto
            -53 hlineto
            1 0 1 1 246 callgsubr
            305 hlineto
            return
          </CharString>
          <CharString index="550">
            -2 49 rlineto
            -105 hlineto
            -45 151 264 -25 rlineto
            return
          </CharString>
          <CharString index="551">
            45 -35 -53 30 -56 hhcurveto
            -37 -34 -14 -22 -30 hvcurveto
            return
          </CharString>
          <CharString index="552">
            hstemhm
            14 641 callsubr
            530 -514 168 return
          </CharString>
          <CharString index="553">
            150 callsubr
            -95 66 -81 81 -48 hvcurveto
            return
          </CharString>
          <CharString index="554">
            431 callgsubr
            10 -6 return
          </CharString>
          <CharString index="555">
            -519 hlineto
            -104 callgsubr
            return
          </CharString>
          <CharString index="556">
            vvcurveto
            -33 callsubr
            172 return
          </CharString>
          <CharString index="557">
            0 -21 88 412 callgsubr
            383 return
          </CharString>
          <CharString index="558">
            157 433 callgsubr
            return
          </CharString>
          <CharString index="559">
            rmoveto
            32 22 36 44 14 return
          </CharString>
          <CharString index="560">
            126 226 callsubr
            return
          </CharString>
          <CharString index="561">
            112 -65 42 hstemhm
            return
          </CharString>
          <CharString index="562">
            -73 callsubr
            369 -52 -159 hlineto
            -117 -49 -59 -59 -43 26 -46 46 -39 hvcurveto
            return
          </CharString>
          <CharString index="563">
            rmoveto
            167 -181 88 62 -94 158 88 167 -83 56 -166 -183 rlineto
            return
          </CharString>
          <CharString index="564">
            378 callgsubr
            -81 -221 rmoveto
            3 -15 rlineto
            200 29 hlineto
            return
          </CharString>
          <CharString index="565">
            rmoveto
            68 69 38 47 -46 vhcurveto
            5 -45 -27 -44 -65 -39 rrcurveto
            -18 19 -11 23 26 vvcurveto
            return
          </CharString>
          <CharString index="566">
            -38 -31 -5 -9 -27 hvcurveto
            -16 16 -8 15 14 vvcurveto
            24 21 24 47 vhcurveto
            274 hlineto
            return
          </CharString>
          <CharString index="567">
            225 callgsubr
            382 callgsubr
            return
          </CharString>
          <CharString index="568">
            -103 11 74 -54 88 hhcurveto
            endchar
          </CharString>
          <CharString index="569">
            61 341 -39 31 -60 -1 -58 -13 -34 -20 rlinecurve
            31 -191 7 -269 rlineto
            return
          </CharString>
          <CharString index="570">
            -68 14 -57 -10 -42 -23 rrcurveto
            -9 15 -5 15 428 callsubr
            return
          </CharString>
          <CharString index="571">
            330 callsubr
            -14 6 return
          </CharString>
          <CharString index="572">
            105 -14 50 51 57 hhcurveto
            22 21 -7 -17 19 hvcurveto
            25 -78 439 callgsubr
            rrcurveto
            return
          </CharString>
          <CharString index="573">
            56 -75 rlineto
            70 -153 hlineto
            -22 -55 -56 -11 -51 hhcurveto
            24 30 13 35 36 vvcurveto
            return
          </CharString>
          <CharString index="574">
            147 -48 callsubr
            194 hlineto
            21 42 -64 75 rlineto
            -629 hlineto
            endchar
          </CharString>
          <CharString index="575">
            -1 -63 44 -47 380 callgsubr
            return
          </CharString>
          <CharString index="576">
            344 callgsubr
            210 callgsubr
            return
          </CharString>
          <CharString index="577">
            62 -20 97 508 598 callsubr
            return
          </CharString>
          <CharString index="578">
            rlinecurve
            95 callsubr
            -157 rlineto
            return
          </CharString>
          <CharString index="579">
            -1 284 callgsubr
          </CharString>
          <CharString index="580">
            hhcurveto
            -20 -19 6 13 -14 hvcurveto
            return
          </CharString>
          <CharString index="581">
            551 callsubr
            264 hstem
            return
          </CharString>
          <CharString index="582">
            -20 520 callgsubr
            return
          </CharString>
          <CharString index="583">
            vlineto
            52 45 50 return
          </CharString>
          <CharString index="584">
            124 -93 rlineto
            557 callsubr
            return
          </CharString>
          <CharString index="585">
            87 529 rmoveto
            -70 101 callgsubr
            return
          </CharString>
          <CharString index="586">
            332 callsubr
            47 hlineto
            32 24 -2 -7 21 hvcurveto
            return
          </CharString>
          <CharString index="587">
            543 callgsubr
            147 callsubr
            return
          </CharString>
          <CharString index="588">
            rmoveto
            91 65 74 96 89 -71 83 -90 -88 -70 -83 -89 -95 75 -75 88 hvcurveto
            return
          </CharString>
          <CharString index="589">
            148 47 rlineto
            -62 -3 -72 -42 -70 hhcurveto
            -85 -119 56 157 -81 hvcurveto
            return
          </CharString>
          <CharString index="590">
            568 -71 callsubr
            return
          </CharString>
          <CharString index="591">
            17 -42 rlineto
            189 17 65 91 66 vvcurveto
            495 vlineto
            -54 48 rlineto
            -1 hlineto
            return
          </CharString>
          <CharString index="592">
            rmoveto
            77 -28 112 207 -3 33 -27 24 -59 23 -46 -6 rlinecurve
            endchar
          </CharString>
          <CharString index="593">
            -126 159 -137 131 vhcurveto
            endchar
          </CharString>
          <CharString index="594">
            hstemhm
            87 174 219 173 return
          </CharString>
          <CharString index="595">
            537 callsubr
            rlineto
            return
          </CharString>
          <CharString index="596">
            -48 -4 -27 -22 -33 hhcurveto
            return
          </CharString>
          <CharString index="597">
            0 -21 239 129 return
          </CharString>
          <CharString index="598">
            0 49 -49 68 -68 81 return
          </CharString>
          <CharString index="599">
            169 213 160 return
          </CharString>
          <CharString index="600">
            59 42 44 -38 vhcurveto
            11 return
          </CharString>
          <CharString index="601">
            hstemhm
            -20 762 return
          </CharString>
          <CharString index="602">
            hintmask 11100110
            -68 callgsubr
            return
          </CharString>
          <CharString index="603">
            366 vlineto
            -54 48 -49 callgsubr
            return
          </CharString>
          <CharString index="604">
            111 70 vlineto
            47 23 -4 -17 29 hvcurveto
            43 -65 77 -65 60 -20 rrcurveto
            return
          </CharString>
          <CharString index="605">
            528 callsubr
            360 return
          </CharString>
          <CharString index="606">
            vvcurveto
            67 63 40 70 26 25 -6 -11 23 vhcurveto
            -8 -32 -41 -47 -46 -34 return
          </CharString>
          <CharString index="607">
            -65 callsubr
            35 151 129 155 -15 148 return
          </CharString>
          <CharString index="608">
            149 callgsubr
            10 -1 -3 10 vhcurveto
            return
          </CharString>
          <CharString index="609">
            hlineto
            hintmask 1110011110000000
            -53 callgsubr
            hintmask 1111001110000000
            return
          </CharString>
          <CharString index="610">
            -20 68 362 callgsubr
            return
          </CharString>
          <CharString index="611">
            317 callsubr
            -116 568 return
          </CharString>
          <CharString index="612">
            -65 callsubr
            39 169 return
          </CharString>
          <CharString index="613">
            316 88 rmoveto
            -36 -35 9 17 -30 hvcurveto
            return
          </CharString>
          <CharString index="614">
            -92 callgsubr
            30 return
          </CharString>
          <CharString index="615">
            rmoveto
            585 callgsubr
            return
          </CharString>
          <CharString index="616">
            193 203 rmoveto
            return
          </CharString>
          <CharString index="617">
            121.5 return
          </CharString>
          <CharString index="618">
            -58 -230 rmoveto
            return
          </CharString>
          <CharString index="619">
            106 -41 108 return
          </CharString>
          <CharString index="620">
            199 callgsubr
            379 145 hintmask 10110000
            return
          </CharString>
          <CharString index="621">
            196 95 136 144 134 -82 118 -138 -23 hvcurveto
            return
          </CharString>
          <CharString index="622">
            -92 callgsubr
            17 106 callsubr
            return
          </CharString>
          <CharString index="623">
            172 callgsubr
            -33 136 77 154 return
          </CharString>
          <CharString index="624">
            120 109 513 callgsubr
            54 -65 callsubr
            return
          </CharString>
          <CharString index="625">
            124 callsubr
            endchar
          </CharString>
          <CharString index="626">
            99 -53 53 hstemhm
            return
          </CharString>
          <CharString index="627">
            hlineto
            hintmask 10000010
            17 113 -90 10 rlineto
            hintmask 00111010
            -19 -123 rlineto
            return
          </CharString>
          <CharString index="628">
            421 callsubr
            167 return
          </CharString>
          <CharString index="629">
            -117 hlineto
            -136 65 rlineto
            -147 31 -102 -95 -109 vvcurveto
            return
          </CharString>
          <CharString index="630">
            606 callgsubr
            12 12 -2 -5 return
          </CharString>
          <CharString index="631">
            209 -100 callgsubr
            return
          </CharString>
          <CharString index="632">
            286 490 rmoveto
            -68 48 rlineto
            242 -189 -173 hlineto
            return
          </CharString>
          <CharString index="633">
            248 602 callgsubr
            132 -48 callsubr
            194 hlineto
            return
          </CharString>
          <CharString index="634">
            90 20 142 15 -65 callsubr
            37 146 return
          </CharString>
          <CharString index="635">
            503 callsubr
            69 149 -149 return
          </CharString>
          <CharString index="636">
            322 -100 callgsubr
            return
          </CharString>
          <CharString index="637">
            208 callsubr
            414 -20 return
          </CharString>
          <CharString index="638">
            518 -48 callsubr
            177 hlineto
            return
          </CharString>
          <CharString index="639">
            -6 44 rlineto
            -1 -22 -14 -2 -15 hhcurveto
            return
          </CharString>
          <CharString index="640">
            268 callgsubr
            287 hlineto
            return
          </CharString>
          <CharString index="641">
            317 callsubr
            86 148 return
          </CharString>
          <CharString index="642">
            309 -51 rmoveto
            61 82 rlineto
            return
          </CharString>
          <CharString index="643">
            hlineto
            -1 154 -68 48 rlineto
            return
          </CharString>
          <CharString index="644">
            rmoveto
            512 callgsubr
            61 24 return
          </CharString>
          <CharString index="645">
            42 hstemhm
            43 146 -146 return
          </CharString>
          <CharString index="646">
            hintmask 11010000
            -73 callsubr
            return
          </CharString>
          <CharString index="647">
            643 callgsubr
            332 return
          </CharString>
          <CharString index="648">
            -31 49 56 -17 50 hhcurveto
            return
          </CharString>
          <CharString index="649">
            643 callsubr
            376 return
          </CharString>
          <CharString index="650">
            -38 -33 -14 -23 -30 hvcurveto
            return
          </CharString>
          <CharString index="651">
            -123 rcurveline
            112 -92 return
          </CharString>
          <CharString index="652">
            75 -11 rlineto
            -519 vlineto
            return
          </CharString>
          <CharString index="653">
            38 -21 27 -44 40 return
          </CharString>
          <CharString index="654">
            -714 407 rmoveto
            return
          </CharString>
          <CharString index="655">
            16 363 callgsubr
            return
          </CharString>
          <CharString index="656">
            rlinecurve
            -123 153 return
          </CharString>
          <CharString index="657">
            32 -20 49 39 vvcurveto
            return
          </CharString>
          <CharString index="658">
            -335 531 return
          </CharString>
          <CharString index="659">
            -73 callsubr
            367 hlineto
            21 42 -64 callgsubr
            -368 hlineto
            return
          </CharString>
          <CharString index="660">
            vhcurveto
            -34 21 -49 11 -62 2 -25 -41 rcurveline
            9 -37 4 -32 return
          </CharString>
          <CharString index="661">
            628 callgsubr
            59.5 95.5 return
          </CharString>
          <CharString index="662">
            -91 79 590 callsubr
            return
          </CharString>
          <CharString index="663">
            -151 72 106 -68 108 hhcurveto
            32 29 6 13 28 hvcurveto
            return
          </CharString>
          <CharString index="664">
            59 36 34 52 62 vvcurveto
            118 -124 79 -133 vhcurveto
            return
          </CharString>
          <CharString index="665">
            666 -20 105 141 56 162 -27 27 hstemhm
            -610 return
          </CharString>
          <CharString index="666">
            599 callgsubr
            rrcurveto
            endchar
          </CharString>
          <CharString index="667">
            -114 114 return
          </CharString>
          <CharString index="668">
            -113 -13 callsubr
            return
          </CharString>
          <CharString index="669">
            67 217 49 hstemhm
            33 252 -104 104 hintmask 11010000
            29 return
          </CharString>
          <CharString index="670">
            292 callgsubr
            -31 12 return
          </CharString>
          <CharString index="671">
            -73 callsubr
            46 -134 hlineto
            -63 43 -66 57 -49 vhcurveto
            return
          </CharString>
          <CharString index="672">
            634 callgsubr
            21 169 return
          </CharString>
          <CharString index="673">
            -25 7 -24 14 -22 vhcurveto
            -54 -66 -98 -51 -75 18 rrcurveto
            return
          </CharString>
          <CharString index="674">
            -144 -64 -78 -82 -120 133 -114 157 return
          </CharString>
          <CharString index="675">
            -73 callsubr
            315 -79 -38 hlineto
            -168 -73 -92 -91 return
          </CharString>
          <CharString index="676">
            -126 141 -129 163 -16 vhcurveto
            -60 -33 vlineto
            return
          </CharString>
          <CharString index="677">
            vlineto
            -63 48 rlineto
            155 -239 hlineto
            -67 -67 -4 -25 return
          </CharString>
          <CharString index="678">
            144 23 -65 callsubr
            18 167 return
          </CharString>
          <CharString index="679">
            83 72 rlineto
            -75 75 -38 47 51 vvcurveto
            58 48 32 59 return
          </CharString>
          <CharString index="680">
            -20 68 117 560 callsubr
            -75 75 -42 42 hstemhm
            return
          </CharString>
          <CharString index="681">
            -6 vvcurveto
            -101 82 -104 641 callgsubr
            vhcurveto
            83 72 rlineto
            return
          </CharString>
          <CharString index="682">
            -65 callsubr
            26 return
          </CharString>
          <CharString index="683">
            -147 164 -136 180 return
          </CharString>
          <CharString index="684">
            -220 600 callgsubr
            return
          </CharString>
          <CharString index="685">
            hlineto
            3 -60 40 -56 68 -47 rrcurveto
            return
          </CharString>
          <CharString index="686">
            737 -377 113 -49 49 return
          </CharString>
          <CharString index="687">
            69 -44 65 -66 46 vhcurveto
            79 vlineto
            return
          </CharString>
          <CharString index="688">
            -73 callsubr
            194 -173 hlineto
            return
          </CharString>
          <CharString index="689">
            134 90 135 return
          </CharString>
          <CharString index="690">
            -1 -53 77 -12 rlineto
            return
          </CharString>
          <CharString index="691">
            34 609 rmoveto
            return
          </CharString>
          <CharString index="692">
            106 346 callgsubr
            -47 435 hintmask 10100000
            279 return
          </CharString>
          <CharString index="693">
            -48 callsubr
            246 hlineto
            21 42 -57 75 rlineto
            return
          </CharString>
          <CharString index="694">
            -219 4 hlineto
            -68 48 rlineto
            587 -303 hlineto
            return
          </CharString>
          <CharString index="695">
            172 -151 -21 24 -21 88 83 -73 71 hstemhm
            return
          </CharString>
          <CharString index="696">
            112 callgsubr
            hstem
            38 274 vstem
            return
          </CharString>
          <CharString index="697">
            rcurveline
            143 callsubr
            return
          </CharString>
          <CharString index="698">
            490 callgsubr
            133 -48 callsubr
            return
          </CharString>
          <CharString index="699">
            -65 48 -60 63 -39 vhcurveto
            -31 48 62 -21 60 hhcurveto
            return
          </CharString>
          <CharString index="700">
            -40 353 128 9 -78 callgsubr
            return
          </CharString>
          <CharString index="701">
            -15 -6 47 -41 69 429 -20 hstemhm
            92 173 return
          </CharString>
          <CharString index="702">
            -64 callgsubr
            -629 hlineto
            endchar
          </CharString>
          <CharString index="703">
            160 171 136 return
          </CharString>
          <CharString index="704">
            -42 -28 -28 -42 -51 vvcurveto
            return
          </CharString>
          <CharString index="705">
            97 -12 628 callgsubr
            return
          </CharString>
          <CharString index="706">
            -73 callsubr
            589 hlineto
            return
          </CharString>
          <CharString index="707">
            98 99 -7 46 return
          </CharString>
          <CharString index="708">
            rmoveto
            40 21 26 return
          </CharString>
          <CharString index="709">
            20 -41 -6 rlinecurve
            return
          </CharString>
          <CharString index="710">
            129 111 return
          </CharString>
          <CharString index="711">
            145 90 165 -151 138 hintmask 11110000
            return
          </CharString>
          <CharString index="712">
            -6 33 443 hstem
            54 511 vstem
            310 return
          </CharString>
          <CharString index="713">
            430 callgsubr
            218 hlineto
            return
          </CharString>
          <CharString index="714">
            -12 138 152 147 107 146 hstemhm
            return
          </CharString>
          <CharString index="715">
            150 callgsubr
            hstemhm
            return
          </CharString>
          <CharString index="716">
            hstemhm
            49 162 173 160 -79 164 return
          </CharString>
          <CharString index="717">
            23 27 16 31 32 vvcurveto
            52 -43 55 -65 -36 return
          </CharString>
          <CharString index="718">
            -126 157 -137 138 vhcurveto
            endchar
          </CharString>
          <CharString index="719">
            175 170 176 hstemhm
            return
          </CharString>
          <CharString index="720">
            -199 -21 112 134 return
          </CharString>
          <CharString index="721">
            hhcurveto
            -132 -99 -76 -115 return
          </CharString>
          <CharString index="722">
            43 22 29 34 13 45 -12 return
          </CharString>
          <CharString index="723">
            -33 -78 -84 -39 -74 6 rrcurveto
            return
          </CharString>
          <CharString index="724">
            0 -4 -1 -3 vhcurveto
            -137 return
          </CharString>
          <CharString index="725">
            vvcurveto
            -64 60 -58 91 10 vhcurveto
            return
          </CharString>
          <CharString index="726">
            18 384 callgsubr
            return
          </CharString>
          <CharString index="727">
            -31 49 62 -21 62 hhcurveto
            32 return
          </CharString>
          <CharString index="728">
            -78 -73 -86 vvcurveto
            -105 115 return
          </CharString>
          <CharString index="729">
            84.5 return
          </CharString>
          <CharString index="730">
            144 -25 127 return
          </CharString>
          <CharString index="731">
            -60 -43 rrcurveto
            -15 19 return
          </CharString>
          <CharString index="732">
            -114 -263 rmoveto
            return
          </CharString>
          <CharString index="733">
            154 -26 110 return
          </CharString>
          <CharString index="734">
            135 46 160 return
          </CharString>
          <CharString index="735">
            118 -74 rcurveline
            return
          </CharString>
          <CharString index="736">
            35 47 -37 31 return
          </CharString>
          <CharString index="737">
            41 51 84 vhcurveto
            156 hlineto
            -1 2 rlineto
            return
          </CharString>
          <CharString index="738">
            61 -3 177 callgsubr
            return
          </CharString>
          <CharString index="739">
            -89 -68 -72 -76 -55 34 -60 57 -51 hvcurveto
            return
          </CharString>
          <CharString index="740">
            -35 -36 -20 -47 -54 vvcurveto
            -172 201 return
          </CharString>
          <CharString index="741">
            4 9 8 2 7 hhcurveto
            41 27 -47 -46 return
          </CharString>
          <CharString index="742">
            vhcurveto
            -77 vlineto
            -39 -48 -75 -29 -39 12 rrcurveto
            return
          </CharString>
          <CharString index="743">
            -18 158 89 104 112 138 hstem
            return
          </CharString>
          <CharString index="744">
            136 -136 457 -144 144 return
          </CharString>
          <CharString index="745">
            133 hstem
            -521 458 vstem
            -268 return
          </CharString>
          <CharString index="746">
            -141 174 -107 139 vhcurveto
            endchar
          </CharString>
          <CharString index="747">
            56 -75 rlineto
            21 return
          </CharString>
          <CharString index="748">
            134 -134 return
          </CharString>
          <CharString index="749">
            133 169 return
          </CharString>
          <CharString index="750">
            156 -156 return
          </CharString>
          <CharString index="751">
            181 -181 return
          </CharString>
          <CharString index="752">
            -45 18 -43 -23 return
          </CharString>
          <CharString index="753">
            143 252 140 hintmask 00111000
            return
          </CharString>
          <CharString index="754">
            hstem
            -334 127 vstem
            -176 return
          </CharString>
          <CharString index="755">
            -194 -21 31 -21 209 -21 return
          </CharString>
          <CharString index="756">
            rmoveto
            99 92 67 125 38 hvcurveto
            return
          </CharString>
          <CharString index="757">
            rmoveto
            -258 128 258 vlineto
            return
          </CharString>
          <CharString index="758">
            34 46 -40 76 129 94 rlineto
            return
          </CharString>
          <CharString index="759">
            13 -28 hhcurveto
            -52 -44 -43 -57 hvcurveto
            return
          </CharString>
          <CharString index="760">
            -141 172 -106 144 vhcurveto
            return
          </CharString>
          <CharString index="761">
            63 79 39 87 5 vhcurveto
            -80 vlineto
            return
          </CharString>
          <CharString index="762">
            -77 81 -60 41 -26 vhcurveto
            endchar
          </CharString>
          <CharString index="763">
            hintmask 000000001100111010000000
            return
          </CharString>
          <CharString index="764">
            hintmask 100001000000011001111110
            return
          </CharString>
          <CharString index="765">
            -284 91 -3 -21 return
          </CharString>
          <CharString index="766">
            136 88 78 108 return
          </CharString>
          <CharString index="767">
            154 132 160 return
          </CharString>
          <CharString index="768">
            hintmask 110010001101011110000000
            return
          </CharString>
          <CharString index="769">
            60 32 rlineto
            89 return
          </CharString>
          <CharString index="770">
            hlineto
            hintmask 0110101000111000
            return
          </CharString>
          <CharString index="771">
            136 -87 136 return
          </CharString>
          <CharString index="772">
            205 208 rmoveto
            return
          </CharString>
          <CharString index="773">
            120 60 136 return
          </CharString>
          <CharString index="774">
            435 -253 105 return
          </CharString>
          <CharString index="775">
            75 rlineto
            -640 hlineto
            return
          </CharString>
          <CharString index="776">
            -334 420 rmoveto
            return
          </CharString>
          <CharString index="777">
            103 -90 76 -26 return
          </CharString>
          <CharString index="778">
            202 136 return
          </CharString>
          <CharString index="779">
            -150 -69 -82 -90 -103 89 -116 118 -111 hvcurveto
            return
          </CharString>
          <CharString index="780">
            -8 -594 118 201 101 -13 -21 return
          </CharString>
          <CharString index="781">
            -321 hlineto
            hintmask 10111010
            -37 -55 16 return
          </CharString>
          <CharString index="782">
            46 rlineto
            -132 30 -90 -92 -100 vvcurveto
            return
          </CharString>
          <CharString index="783">
            61 36 rlineto
            76 130 -41 vlineto
            return
          </CharString>
          <CharString index="784">
            -52 -24 -68 -7 -52 25 rrcurveto
            -13 return
          </CharString>
          <CharString index="785">
            hintmask 1101100110000000
            return
          </CharString>
          <CharString index="786">
            hintmask 1010110011000000
            return
          </CharString>
          <CharString index="787">
            hintmask 1010000111000000
            return
          </CharString>
          <CharString index="788">
            141 56 163 -28 28 hstemhm
            return
          </CharString>
        <CharString name=".notdef">
          -113 23 115 206 114 hstem
          47 107 207 104 vstem
          47 458 rmoveto
          -435 418 435 vlineto
          -104 -320 rmoveto
          -207 206 207 hlineto
          endchar
        </CharString>
        <CharString name="A">
          -11 callgsubr
          endchar
        </CharString>
        <CharString name="AE">
          331 0 103 -103 212 -40 84 28.5 94.5 81 202 -96 96 434 callsubr
          hstemhm
          421 175 hintmask 1010010010000000
          279 256 rmoveto
          142 281 rlineto
          -281 vlineto
          -441 -222 rmoveto
          6 -34 rlineto
          280 27 callgsubr
          -84 13 54 106 rlineto
          184 -92 hlineto
          -25 -12 -38 -17 -22 -17 6 -34 rcurveline
          540 1 hlineto
          12 -1 rlineto
          hintmask 0100010010000000
          33 callsubr
          hintmask 1011010010000000
          -36 -108 -175 -10 rlineto
          191 vlineto
          215 297 callgsubr
          -215 -18 rlineto
          201 vlineto
          168 -10 rlineto
          hintmask 1010100010000000
          18 -101 rlineto
          100 hlineto
          hintmask 1010010010000000
          14 67 7 92 -3 43 rrcurveto
          -628 hlineto
          hintmask 1010000110000000
          -1 -53 rlineto
          hintmask 1010001010000000
          73 -11 -267 -512 rlineto
          hintmask 1010010010000000
          -21 -11 -49 -21 -27 -20 rrcurveto
          endchar
        </CharString>
        <CharString name="Aacute">
          117 callsubr
          -206 81 12 callsubr
          -205 -654 -19 callgsubr
          endchar
        </CharString>
        <CharString name="Abreve">
          8 callgsubr
        </CharString>
        <CharString name="Acircumflex">
          -11 callgsubr
          -268 505 108 callsubr
        </CharString>
        <CharString name="Adieresis">
          -11 callgsubr
          -167 470 -95 callgsubr
          endchar
        </CharString>
        <CharString name="Agrave">
          117 callsubr
          39 hmoveto
          139 callsubr
          -206 -41 callgsubr
          endchar
        </CharString>
        <CharString name="Alpha">
          -11 callgsubr
          endchar
        </CharString>
        <CharString name="Alphaacute">
          530 callsubr
          494 callsubr
          hintmask 10110000
          -98 callsubr
          hintmask 01110000
          87 callsubr
          hintmask 10110000
          -101 callsubr
          -407 175 rmoveto
          60 -24 390 callsubr
        </CharString>
        <CharString name="Alphaasper">
          208 callsubr
          416 -20 494 callsubr
          -730 0 callgsubr
          hintmask 10110000
          -98 callsubr
          hintmask 01110000
          87 callsubr
          hintmask 10110000
          -101 callsubr
          hintmask 10100100
          -269 151 rmoveto
          hintmask 10101000
          94 callgsubr
          hintmask 10100100
          -6 callsubr
        </CharString>
        <CharString name="Alphaasperacute">
          342 callgsubr
          -175 383 callgsubr
          917 hintmask 10010010
          15 383 callsubr
          hintmask 10100010
          129 callgsubr
          hintmask 10010100
          625 callsubr
          hintmask 10011000
          94 callgsubr
          hintmask 10010100
          -55 callgsubr
          310 239 rmoveto
          15 -41 rlineto
          hintmask 10010010
          -214 -527 -31 -14 -28 -15 -25 -17 rlinecurve
          37 callgsubr
          280 27 callgsubr
          -86 14 rlineto
          hintmask 01010010
          87 callsubr
          hintmask 10010010
          271 callsubr
        </CharString>
        <CharString name="Alphaasperacuteiotasub">
          351 callgsubr
          414 -20 22 -20 hstemhm
          -175 383 callgsubr
          917 hintmask 0111001001000000
          15 383 callsubr
          hintmask 0111010001000000
          129 callgsubr
          293 188 callgsubr
          hintmask 1001001001000000
          -43 callsubr
          hintmask 0111010001000000
          97 callsubr
          hintmask 0111001010000000
          -407 630 rmoveto
          hintmask 0111001100000000
          94 callgsubr
          hintmask 0111001010000000
          -55 callgsubr
          310 239 rmoveto
          15 -41 rlineto
          hintmask 0111001001000000
          -214 -527 -31 -14 -28 -15 -25 -17 rlinecurve
          37 callgsubr
          280 27 callgsubr
          -86 14 rlineto
          hintmask 0110101001000000
          87 callsubr
          hintmask 0111001001000000
          271 callsubr
        </CharString>
        <CharString name="Alphaaspergrave">
          342 callgsubr
          -183 383 callgsubr
          925 hintmask 10010010
          -98 callsubr
          hintmask 01010010
          87 callsubr
          hintmask 10100010
          178 callsubr
          hintmask 10010100
          511 callsubr
          hintmask 10011000
          312 callgsubr
          hintmask 10010100
          -46 callgsubr
        </CharString>
        <CharString name="Alphaaspergraveiotasub">
          351 callgsubr
          414 -20 22 -20 hstemhm
          -183 383 callgsubr
          925 hintmask 0111001001000000
          -98 callsubr
          hintmask 0110101001000000
          87 callsubr
          hintmask 0111010001000000
          178 callsubr
          357 249 callsubr
          hintmask 1001001001000000
          -43 callsubr
          hintmask 0111010001000000
          97 callsubr
          hintmask 0111001010000000
          -415 630 rmoveto
          hintmask 0111001100000000
          312 callgsubr
          hintmask 0111001010000000
          -46 callgsubr
        </CharString>
        <CharString name="Alphaasperiotasub">
          351 callgsubr
          416 -20 494 callsubr
          -730 0 callgsubr
          hintmask 0111011000000000
          -98 callsubr
          hintmask 0110111000000000
          87 callsubr
          hintmask 0111011000000000
          193 callsubr
          hintmask 1001011000000000
          -43 callsubr
          hintmask 0111011000000000
          97 callsubr
          hintmask 0111010010000000
          -220 630 rmoveto
          hintmask 0111010100000000
          94 callgsubr
          hintmask 0111010010000000
          -6 callsubr
        </CharString>
        <CharString name="Alphaaspertilde">
          208 callsubr
          241 209 callsubr
          -9 -20 hstemhm
          -237 979 -855 0 callgsubr
          hintmask 1010011000000000
          -98 callsubr
          hintmask 0110101000000000
          87 callsubr
          hintmask 1001011000000000
          -101 callsubr
          -320 247 145 callsubr
          -53 20 rlineto
          hintmask 1010101000000000
          -36 callgsubr
          hintmask 1001001000000000
          296 callsubr
          hintmask 1001011000000000
          144 callsubr
          hintmask 1010100010000000
          -74 -271 rmoveto
          hintmask 1010100100000000
          207 callgsubr
          hintmask 1010100010000000
          -6 callsubr
        </CharString>
        <CharString name="Alphaaspertildeiotasub">
          351 callgsubr
          241 209 callsubr
          -9 -20 hstemhm
          -237 979 -855 0 callgsubr
          hintmask 0111010011000000
          -98 callsubr
          hintmask 0110110101000000
          87 callsubr
          hintmask 0111001011000000
          -101 callsubr
          -320 247 145 callsubr
          -53 20 rlineto
          hintmask 0111010101000000
          -36 callgsubr
          hintmask 0111001001000000
          296 callsubr
          hintmask 0111001011000000
          144 callsubr
          hintmask 0111010101000000
          271 -726 -43 callgsubr
          hintmask 1001010101000000
          -43 callsubr
          hintmask 0111010101000000
          97 callsubr
          hintmask 0111010100010000
          -345 455 rmoveto
          hintmask 0111010100100000
          207 callgsubr
          hintmask 0111010100010000
          -6 callsubr
        </CharString>
        <CharString name="Alphabreve">
          8 callgsubr
        </CharString>
        <CharString name="Alphagrave">
          530 callsubr
          494 callsubr
          hintmask 10110000
          -98 callsubr
          hintmask 01110000
          87 callsubr
          hintmask 10110000
          -101 callsubr
          -412 348 537 callsubr
          17 callgsubr
          -24 -19 rlinecurve
          endchar
        </CharString>
        <CharString name="Alphaiotasub">
          351 callgsubr
          494 callsubr
          hintmask 01110100
          -98 callsubr
          hintmask 01101100
          87 callsubr
          hintmask 01110100
          193 callsubr
          hintmask 10010100
          -43 callsubr
          hintmask 01110100
          97 callsubr
          endchar
        </CharString>
        <CharString name="Alphalenis">
          208 callsubr
          416 -20 494 callsubr
          -673 105 hintmask 10110000
          -98 callsubr
          hintmask 01110000
          87 callsubr
          hintmask 10110000
          -101 callsubr
          hintmask 10101000
          -398 199 -54 callgsubr
        </CharString>
        <CharString name="Alphalenisacute">
          342 callgsubr
          -162 904 -846 105 hintmask 10011000
          -98 callsubr
          hintmask 01011000
          87 callsubr
          hintmask 10101000
          -101 callsubr
          -395 175 rmoveto
          61 -24 110 68 callgsubr
          hintmask 10010100
          -229 -215 -54 callgsubr
        </CharString>
        <CharString name="Alphalenisacuteiotasub">
          351 callgsubr
          414 -20 22 -20 hstemhm
          -162 904 -846 105 hintmask 0111001100000000
          -98 callsubr
          hintmask 0110101100000000
          87 callsubr
          hintmask 0111010100000000
          -101 callsubr
          -395 175 rmoveto
          61 -24 110 68 callgsubr
          293 188 callgsubr
          hintmask 1001001100000000
          -43 callsubr
          hintmask 0111010100000000
          97 callsubr
          hintmask 0111001010000000
          -522 678 -54 callgsubr
        </CharString>
        <CharString name="Alphalenisgrave">
          342 callgsubr
          -189 931 -872 105 hintmask 10011000
          -98 callsubr
          hintmask 01011000
          87 callsubr
          hintmask 10101000
          178 callsubr
          hintmask 10010100
          270 callsubr
        </CharString>
        <CharString name="Alphalenisgraveiotasub">
          351 callgsubr
          414 -20 22 -20 hstemhm
          -189 931 -872 105 hintmask 0111001100000000
          -98 callsubr
          hintmask 0110101100000000
          87 callsubr
          hintmask 0111010100000000
          178 callsubr
          357 249 callsubr
          hintmask 1001001100000000
          -43 callsubr
          hintmask 0111010100000000
          97 callsubr
          hintmask 0111001010000000
          -549 138 callgsubr
        </CharString>
        <CharString name="Alphalenisiotasub">
          351 callgsubr
          416 -20 494 callsubr
          -673 105 hintmask 01110110
          -98 callsubr
          hintmask 01101110
          87 callsubr
          hintmask 01110110
          193 callsubr
          hintmask 10010110
          -43 callsubr
          hintmask 01110110
          97 callsubr
          hintmask 01110101
          -349 678 -54 callgsubr
        </CharString>
        <CharString name="Alphalenistilde">
          208 callsubr
          241 209 callsubr
          -9 -20 hstemhm
          -237 979 -797 105 hintmask 10100110
          -98 callsubr
          hintmask 01101010
          87 callsubr
          hintmask 10010110
          -101 callsubr
          -320 247 145 callsubr
          -53 20 rlineto
          hintmask 10101010
          -36 callgsubr
          hintmask 10010010
          296 callsubr
          hintmask 10010110
          144 callsubr
          hintmask 10101001
          -202 -224 -97 callgsubr
          endchar
        </CharString>
        <CharString name="Alphalenistildeiotasub">
          351 callgsubr
          241 209 callsubr
          -9 -20 hstemhm
          -237 979 -797 105 hintmask 0111010011000000
          -98 callsubr
          hintmask 0110110101000000
          87 callsubr
          hintmask 0111001011000000
          -101 callsubr
          -320 247 145 callsubr
          -53 20 rlineto
          hintmask 0111010101000000
          -36 callgsubr
          hintmask 0111001001000000
          296 callsubr
          hintmask 0111001011000000
          144 callsubr
          hintmask 0111010101000000
          271 -726 -43 callgsubr
          hintmask 1001010101000000
          -43 callsubr
          hintmask 0111010101000000
          97 callsubr
          hintmask 0111010100100000
          -473 502 -97 callgsubr
          endchar
        </CharString>
        <CharString name="Alphawithmacron">
          208 callsubr
          486 99 -53 53 494 callsubr
          hintmask 10101000
          -98 callsubr
          hintmask 01101000
          87 callsubr
          hintmask 10101000
          -101 callsubr
          -254 560 431 callsubr
          hintmask 10011000
          47 46 rlineto
          hintmask 10101000
          236 callsubr
        </CharString>
        <CharString name="Alphawithtonos">
          530 callsubr
          494 callsubr
          hintmask 10110000
          -98 callsubr
          hintmask 01110000
          87 callsubr
          hintmask 10110000
          -101 callsubr
          -408 174 170 callgsubr
        </CharString>
        <CharString name="Amacron">
          208 callsubr
          486 99 -53 53 494 callsubr
          hintmask 10101000
          -98 callsubr
          hintmask 01101000
          87 callsubr
          hintmask 10101000
          -101 callsubr
          -254 560 431 callsubr
          hintmask 10011000
          47 46 rlineto
          hintmask 10101000
          236 callsubr
        </CharString>
        <CharString name="Aogonek">
          105 658 callsubr
          217 297 callsubr
          hstemhm
          422 119 hintmask 01101000
          -98 callsubr
          hintmask 01011000
          87 callsubr
          hintmask 10101000
          35 -95 -29 -14 -27 -14 -24 -17 rlinecurve
          37 callgsubr
          185 hlineto
          -109 -46 -56 -65 -61 vvcurveto
          545 callgsubr
          hintmask 01101000
          662 callgsubr
          hintmask 10101000
          377 callsubr
          51 53 43 76 46 vhcurveto
          71 27 callgsubr
          -72 11 -251 622 rlineto
          -167 -41 callgsubr
          endchar
        </CharString>
        <CharString name="Aring">
          208 callsubr
          454 48 116 82 hstemhm
          231 65 117 64 hintmask 10111100
          -98 callsubr
          hintmask 01111100
          87 callsubr
          hintmask 10111100
          -101 callsubr
          -53 502 51 callgsubr
          endchar
        </CharString>
        <CharString name="Atilde">
          208 callsubr
          527 119 494 callsubr
          hintmask 10010000
          -98 callsubr
          hintmask 01010000
          87 callsubr
          hintmask 10110000
          -101 callsubr
          57 445 rmoveto
          -31 callsubr
          endchar
        </CharString>
        <CharString name="B">
          18 callsubr
        </CharString>
        <CharString name="Beta">
          18 callsubr
        </CharString>
        <CharString name="C">
          -15 callgsubr
          endchar
        </CharString>
        <CharString name="Cacute">
          -15 callgsubr
          -186 784 197 callgsubr
        </CharString>
        <CharString name="Ccaron">
          -15 callgsubr
          -257 865 -15 callsubr
        </CharString>
        <CharString name="Ccedilla">
          -26 476 callgsubr
          58 40 117 -91 -21 437 257 -96 96 hstemhm
          11 182 143 125 hintmask 10100111
          381 -17 rmoveto
          210 89 -28 82 -170 -54 rlineto
          -134 -3 -66 111 140 vvcurveto
          88 26 95 61 55 vhcurveto
          49 -2 42 -10 39 -15 rrcurveto
          hintmask 10011011
          30 -134 rlineto
          108 hlineto
          hintmask 01010111
          16 56 12 94 -4 42 rrcurveto
          31 -43 -65 34 -103 hhcurveto
          -237 -113 -180 -180 -140 69 -163 205 -31 hvcurveto
          -48 -58 27 -45 294 callsubr
          rlinecurve
          hintmask 10100111
          53 callgsubr
          23 40 rlineto
          -1 9 9 1 9 hhcurveto
          endchar
        </CharString>
        <CharString name="Chi">
          30 callgsubr
        </CharString>
        <CharString name="D">
          59 callgsubr
          endchar
        </CharString>
        <CharString name="Dcaron">
          59 callgsubr
          125 816 -15 callsubr
        </CharString>
        <CharString name="Dcroat">
          13 callsubr
        </CharString>
        <CharString name="Delta">
          54 0 115 hstem
          20 634 vstem
          20 81 rmoveto
          34 -81 rlineto
          561 hlineto
          39 95 -256 591 -157 -40 15 -37 rlineto
          52 -128 rmoveto
          149 -364 -298 -4 rlineto
          endchar
        </CharString>
        <CharString name="E">
          -96 callsubr
          endchar
        </CharString>
        <CharString name="Eacute">
          -64 callsubr
          hintmask 1010100100000000
          181 103 callsubr
          hintmask 1010001100000000
          -391 -301 70 callsubr
        </CharString>
        <CharString name="Ecaron">
          -96 callsubr
          75 186 -15 callsubr
        </CharString>
        <CharString name="Ecircumflex">
          -96 callsubr
          74 99 108 callsubr
        </CharString>
        <CharString name="Edieresis">
          -96 callsubr
          175 64 -95 callgsubr
          endchar
        </CharString>
        <CharString name="Edotaccent">
          -96 callsubr
          300 64 31 callgsubr
        </CharString>
        <CharString name="Egrave">
          -64 callsubr
          hintmask 1010100100000000
          426 288 callsubr
          hintmask 1010001100000000
          -392 -77 70 callsubr
        </CharString>
        <CharString name="Emacron">
          -92 callsubr
          80 99 -53 53 hstemhm
          109 493 callgsubr
          hintmask 1010001101000000
          584 callsubr
          hintmask 1010010101000000
          -61 callgsubr
          hintmask 0110100101000000
          33 callsubr
          hintmask 1010100101000000
          64 callgsubr
          hintmask 1010100100100000
          173 callgsubr
          hintmask 1010100101000000
          -6 callgsubr
          hintmask 1011000101000000
          18 -102 rlineto
          100 hlineto
          hintmask 1010100101000000
          13 callgsubr
          88 154 431 callsubr
          hintmask 1010100011000000
          47 46 rlineto
          hintmask 1010100101000000
          236 callsubr
        </CharString>
        <CharString name="Eogonek">
          18 -286 91 -3 -21 219 99.5 185 95 80.5 202 -33 callgsubr
          hstemhm
          109 493 callgsubr
          -166 119 hintmask 0111000110000000
          584 callsubr
          hintmask 1011001010100000
          75 -11 rlineto
          -519 4 callgsubr
          473 hlineto
          -112 -46 -58 -66 -62 vvcurveto
          545 callgsubr
          hintmask 0111010010000000
          662 callgsubr
          hintmask 1011010010100000
          377 callsubr
          52 55 43 77 47 vhcurveto
          -3 2 8 57 6 92 -2 57 rlinecurve
          -99 8 64 callgsubr
          hintmask 0111010001000000
          173 callgsubr
          hintmask 0111010010000000
          -6 callgsubr
          hintmask 0111100010000000
          18 -102 rlineto
          100 hlineto
          hintmask 0111010010000000
          13 callgsubr
          endchar
        </CharString>
        <CharString name="Epsilon">
          -96 callsubr
          endchar
        </CharString>
        <CharString name="Epsilonacute">
          -59 callsubr
          -226 -231 rmoveto
          60 -24 rlineto
          hintmask 1010000110000000
          390 callsubr
        </CharString>
        <CharString name="Epsilonasper">
          -92 callsubr
          10 -20 hstemhm
          -182 0 callgsubr
          135 493 callgsubr
          hintmask 1010001000100000
          584 callsubr
          hintmask 1010010000100000
          -61 callgsubr
          hintmask 0110100000100000
          33 callsubr
          hintmask 1010100000100000
          64 callgsubr
          hintmask 1010100000010000
          173 callgsubr
          hintmask 1010100000100000
          -6 callgsubr
          hintmask 1011000000100000
          18 -102 rlineto
          100 hlineto
          hintmask 1010100001100000
          13 callgsubr
          -89 -255 rmoveto
          hintmask 1010100010100000
          94 callgsubr
          hintmask 1010000101100000
          123 callgsubr
          hintmask 1010100001100000
          -63 callsubr
          endchar
        </CharString>
        <CharString name="Epsilonasperacute">
          88 callgsubr
          -368 0 callgsubr
          321 493 callgsubr
          hintmask 1010100000010000
          -178 383 callsubr
          hintmask 1010000100110000
          305 callsubr
          hintmask 1010100001010000
          94 callgsubr
          hintmask 1010000010110000
          123 callgsubr
          hintmask 1010000100110000
          -63 callsubr
          hintmask 1010001000010000
          274 202 rmoveto
          hintmask 1010010000010000
          -61 callgsubr
          hintmask 0110100000010000
          33 callsubr
          hintmask 1010100000010000
          64 callgsubr
          hintmask 1010100000001000
          173 callgsubr
          hintmask 1010100000010000
          -6 callgsubr
          hintmask 1011000000010000
          18 -102 rlineto
          100 hlineto
          hintmask 1010100000010000
          13 callgsubr
          endchar
        </CharString>
        <CharString name="Epsilonaspergrave">
          88 callgsubr
          -376 0 callgsubr
          329 493 callgsubr
          hintmask 1010001000010000
          584 callsubr
          hintmask 1010010000010000
          -61 callgsubr
          hintmask 0110100000010000
          33 callsubr
          hintmask 1010100000010000
          64 callgsubr
          hintmask 1010100000001000
          173 callgsubr
          hintmask 1010100000010000
          -6 callgsubr
          hintmask 1011000000010000
          18 -102 rlineto
          100 hlineto
          hintmask 1010100000010000
          13 callgsubr
          -228 -58 129 callsubr
          hintmask 1010000100110000
          110 callsubr
          511 callsubr
          hintmask 1010100001010000
          312 callgsubr
          hintmask 1010000010110000
          -68 callgsubr
          hintmask 1010000100110000
          -63 callsubr
          endchar
        </CharString>
        <CharString name="Epsilongrave">
          -59 callsubr
          -231 -58 488 callsubr
          hintmask 1010000110000000
          17 callgsubr
          -24 -19 rlinecurve
          endchar
        </CharString>
        <CharString name="Epsilonlenis">
          -92 callsubr
          10 -20 hstemhm
          -124 105 128 493 callgsubr
          hintmask 1010001001000000
          584 callsubr
          hintmask 1010010001000000
          -61 callgsubr
          hintmask 0110100001000000
          33 callsubr
          hintmask 1010100001000000
          64 callgsubr
          hintmask 1010100000100000
          173 callgsubr
          hintmask 1010100001000000
          -6 callgsubr
          hintmask 1011000001000000
          18 -102 rlineto
          100 hlineto
          hintmask 1010100011000000
          13 callgsubr
          -217 -207 rmoveto
          35 -48 rlineto
          680 callsubr
          183 callgsubr
          hintmask 1010100011000000
          472 callsubr
        </CharString>
        <CharString name="Epsilonlenisacute">
          88 callgsubr
          -297 105 301 493 callgsubr
          hintmask 1010001000100000
          584 callsubr
          hintmask 1010010000100000
          -61 callgsubr
          hintmask 0110100000100000
          33 callsubr
          hintmask 1010100000100000
          64 callgsubr
          hintmask 1010100000010000
          173 callgsubr
          hintmask 1010100000100000
          -6 callgsubr
          hintmask 1011000000100000
          18 -102 rlineto
          100 hlineto
          hintmask 1010100000100000
          13 callgsubr
          -214 -231 rmoveto
          61 -24 rlineto
          hintmask 1010000101100000
          441 callgsubr
          hintmask 1010000011100000
          183 callgsubr
          hintmask 1010000101100000
          472 callsubr
        </CharString>
        <CharString name="Epsilonlenisgrave">
          88 callgsubr
          -323 105 327 493 callgsubr
          hintmask 1010001000100000
          584 callsubr
          hintmask 1010010000100000
          -61 callgsubr
          hintmask 0110100000100000
          33 callsubr
          hintmask 1010100000100000
          64 callgsubr
          hintmask 1010100000010000
          173 callgsubr
          hintmask 1010100000100000
          -6 callgsubr
          hintmask 1011000000100000
          18 -102 rlineto
          100 hlineto
          hintmask 1010100000100000
          13 callgsubr
          -228 -58 129 callsubr
          hintmask 1010000101100000
          110 callsubr
          -192 -182 rmoveto
          35 -48 rlineto
          hintmask 1010000011100000
          77 34 52 12 callgsubr
          hintmask 1010000101100000
          407 callsubr
        </CharString>
        <CharString name="Epsilonwithtonos">
          -59 callsubr
          -227 -232 rmoveto
          61 -23 rlineto
          hintmask 1010000110000000
          -68 callsubr
          endchar
        </CharString>
        <CharString name="Eta">
          17 callsubr
        </CharString>
        <CharString name="Etaacute">
          -51 callgsubr
          -216 399 rmoveto
          60 -24 rlineto
          hintmask 10000111
          390 callsubr
        </CharString>
        <CharString name="Etaasper">
          175 callsubr
          10 -20 hstemhm
          -182 0 callgsubr
          135 318 callsubr
          hintmask 1000100011000000
          24 32 -30 callgsubr
          hintmask 0100100011000000
          234 callgsubr
          hintmask 1000100011000000
          -95 callsubr
          hintmask 1001000011000000
          -1 -53 rlineto
          hintmask 1010000011000000
          130 callgsubr
          hintmask 1000100011000000
          206 222 callgsubr
          -518 vlineto
          hintmask 1000100011000000
          -29 callgsubr
          hintmask 1000100111000000
          -78 375 rmoveto
          hintmask 1000101011000000
          94 callgsubr
          hintmask 1000010111000000
          123 callgsubr
          hintmask 1000100111000000
          -63 callsubr
          endchar
        </CharString>
        <CharString name="Etaasperacute">
          202 callsubr
          -369 0 callgsubr
          322 318 callsubr
          hintmask 1000100001100000
          -179 383 callsubr
          hintmask 1000010011100000
          305 callsubr
          hintmask 1000100101100000
          94 callgsubr
          hintmask 1000001011100000
          123 callgsubr
          hintmask 1000010011100000
          -63 callsubr
          hintmask 1000100001100000
          265 -375 -30 callgsubr
          hintmask 0100100001100000
          234 callgsubr
          hintmask 1000100001100000
          -95 callsubr
          hintmask 1001000001100000
          -1 -53 rlineto
          hintmask 1010000001100000
          130 callgsubr
          hintmask 1000100001100000
          206 391 callsubr
          -518 vlineto
          hintmask 1000100001100000
          215 callgsubr
        </CharString>
        <CharString name="Etaasperacuteiotasub">
          401 callsubr
          8 -20 22 -20 hstemhm
          -369 0 callgsubr
          322 318 callsubr
          hintmask 0111000100001100
          -179 383 callsubr
          hintmask 0111000010001100
          129 callgsubr
          564 188 callgsubr
          hintmask 1001000100001100
          -43 callsubr
          hintmask 0111000010001100
          97 callsubr
          hintmask 0111000100011100
          -678 630 rmoveto
          hintmask 0111000100101100
          94 callgsubr
          hintmask 0111000001011100
          123 callgsubr
          hintmask 0111000100011100
          -63 callsubr
          hintmask 0111000100001100
          265 -375 -30 callgsubr
          hintmask 0110100100001100
          234 callgsubr
          hintmask 0111000100001100
          -95 callsubr
          hintmask 0111001000001100
          -1 -53 rlineto
          hintmask 0111010000001100
          130 callgsubr
          hintmask 0111000100001100
          206 392 callgsubr
          -518 vlineto
          hintmask 0111000100001100
          215 callgsubr
        </CharString>
        <CharString name="Etaaspergrave">
          202 callsubr
          -377 0 callgsubr
          330 318 callsubr
          hintmask 1000100001100000
          -194 198 callgsubr
          hintmask 1000010011100000
          110 callsubr
          511 callsubr
          hintmask 1000100101100000
          312 callgsubr
          hintmask 1000001011100000
          -68 callgsubr
          hintmask 1000010011100000
          -63 callsubr
          hintmask 1000100001100000
          273 -375 -30 callgsubr
          hintmask 0100100001100000
          234 callgsubr
          hintmask 1000100001100000
          -95 callsubr
          hintmask 1001000001100000
          -1 -53 rlineto
          hintmask 1010000001100000
          130 callgsubr
          hintmask 1000100001100000
          206 391 callsubr
          -518 vlineto
          hintmask 1000100001100000
          215 callgsubr
        </CharString>
        <CharString name="Etaaspergraveiotasub">
          401 callsubr
          8 -20 22 -20 hstemhm
          -377 0 callgsubr
          330 318 callsubr
          hintmask 0111000100001100
          -194 198 callgsubr
          hintmask 0111000010001100
          110 callsubr
          628 249 callsubr
          hintmask 1001000100001100
          -43 callsubr
          hintmask 0111000010001100
          97 callsubr
          hintmask 0111000100011100
          -686 630 rmoveto
          hintmask 0111000100101100
          312 callgsubr
          hintmask 0111000001011100
          -68 callgsubr
          hintmask 0111000100011100
          -63 callsubr
          hintmask 0111000100001100
          273 -375 -30 callgsubr
          hintmask 0110100100001100
          234 callgsubr
          hintmask 0111000100001100
          -95 callsubr
          hintmask 0111001000001100
          -1 -53 rlineto
          hintmask 0111010000001100
          130 callgsubr
          hintmask 0111000100001100
          206 392 callgsubr
          -518 vlineto
          hintmask 0111000100001100
          215 callgsubr
        </CharString>
        <CharString name="Etaasperiotasub">
          401 callsubr
          10 -20 hstemhm
          -182 0 callgsubr
          135 318 callsubr
          hintmask 0111000100011000
          24 32 -30 callgsubr
          hintmask 0110100100011000
          234 callgsubr
          hintmask 0111000100011000
          -95 callsubr
          hintmask 0111001000011000
          -1 -53 rlineto
          hintmask 0111010000011000
          130 callgsubr
          hintmask 0111000100011000
          206 222 callsubr
          -518 vlineto
          hintmask 0111000100011000
          394 callsubr
          hintmask 1001000100011000
          -43 callsubr
          hintmask 0111000100011000
          97 callsubr
          hintmask 0111000100111000
          -491 630 rmoveto
          hintmask 0111000101011000
          94 callgsubr
          hintmask 0111000010111000
          123 callgsubr
          hintmask 0111000100111000
          -63 callsubr
          endchar
        </CharString>
        <CharString name="Etaaspertilde">
          204 0 414 callgsubr
          -307 0 callgsubr
          260 318 callsubr
          hintmask 1001000010001100
          636 callgsubr
          hintmask 1010000001001100
          -53 20 rlineto
          hintmask 1010100000001100
          -36 callgsubr
          hintmask 1001000100001100
          296 callsubr
          hintmask 1001000010001100
          144 callsubr
          hintmask 1010000100011100
          -74 -271 rmoveto
          hintmask 1010000100101100
          207 callgsubr
          hintmask 1010000100011100
          -55 callgsubr
          hintmask 1010000100001100
          203 -200 -30 callgsubr
          hintmask 0110000100001100
          234 callgsubr
          hintmask 1010000100001100
          -95 callsubr
          hintmask 1010001000001100
          -1 -53 rlineto
          hintmask 1010010000001100
          130 callgsubr
          hintmask 1010000100001100
          -16 callgsubr
          hintmask 1010001000001100
          -1 -53 rlineto
          hintmask 1010010000001100
          -3 callgsubr
          hintmask 1010000100001100
          215 callgsubr
        </CharString>
        <CharString name="Etaaspertildeiotasub">
          204 -223 192 -171 -21 164 28 31 414 callgsubr
          -307 0 callgsubr
          260 318 callsubr
          hintmask 011100100001000110000000
          636 callgsubr
          hintmask 011101000000100110000000
          -53 20 rlineto
          hintmask 011101010000000110000000
          -36 callgsubr
          hintmask 011100100010000110000000
          296 callsubr
          hintmask 011100100001000110000000
          144 callsubr
          hintmask 011101000010000110000000
          542 -726 -43 callgsubr
          hintmask 100101000010000110000000
          -43 callsubr
          hintmask 011101000010000110000000
          97 callsubr
          hintmask 011101000010001110000000
          -616 455 rmoveto
          hintmask 011101000010010110000000
          207 callgsubr
          hintmask 011101000010001110000000
          -55 callgsubr
          hintmask 011101000010000110000000
          203 -200 -30 callgsubr
          hintmask 011011000010000110000000
          234 callgsubr
          hintmask 011101000010000110000000
          -95 callsubr
          hintmask 011101000100000110000000
          -1 -53 rlineto
          hintmask 011101001000000110000000
          130 callgsubr
          hintmask 011101000010000110000000
          -16 callgsubr
          hintmask 011101000100000110000000
          -1 -53 rlineto
          hintmask 011101001000000110000000
          -3 callgsubr
          hintmask 011101000010000110000000
          215 callgsubr
        </CharString>
        <CharString name="Etagrave">
          -51 callgsubr
          -220 572 488 callsubr
          hintmask 10000111
          17 callgsubr
          -24 -19 rlinecurve
          endchar
        </CharString>
        <CharString name="Etaiotasub">
          401 callsubr
          379 callgsubr
          hintmask 0111000111000000
          24 32 -30 callgsubr
          hintmask 0110100111000000
          234 callgsubr
          hintmask 0111000111000000
          -95 callsubr
          hintmask 0111001011000000
          -1 -53 rlineto
          hintmask 0111010011000000
          130 callgsubr
          hintmask 0111000111000000
          -16 callgsubr
          hintmask 0111001011000000
          -1 -53 rlineto
          hintmask 0111010011000000
          -3 callgsubr
          hintmask 0111000111000000
          394 callsubr
          hintmask 1001000111000000
          -43 callsubr
          hintmask 0111000111000000
          97 callsubr
          endchar
        </CharString>
        <CharString name="Etalenis">
          175 callsubr
          10 -20 hstemhm
          -125 105 129 318 callsubr
          679 callgsubr
          24 32 -30 callgsubr
          hintmask 0100100110000000
          234 callgsubr
          679 callgsubr
          -95 callsubr
          hintmask 1001000110000000
          -1 -53 rlineto
          hintmask 1010000110000000
          130 callgsubr
          679 callgsubr
          -16 callgsubr
          hintmask 1001000110000000
          -1 -53 rlineto
          hintmask 1010000110000000
          -3 callgsubr
          679 callgsubr
          -29 callgsubr
          hintmask 1000011110000000
          -207 423 -54 callgsubr
        </CharString>
        <CharString name="Etalenisacute">
          202 callsubr
          -297 105 301 318 callsubr
          hintmask 1000100011000000
          24 32 -30 callgsubr
          hintmask 0100100011000000
          234 callgsubr
          hintmask 1000100011000000
          -95 callsubr
          hintmask 1001000011000000
          -1 -53 rlineto
          hintmask 1010000011000000
          130 callgsubr
          hintmask 1000100011000000
          206 222 callgsubr
          -518 vlineto
          hintmask 1000100011000000
          -29 callgsubr
          -203 399 rmoveto
          61 -24 rlineto
          hintmask 1000010111000000
          441 callgsubr
          hintmask 1000001111000000
          183 callgsubr
          hintmask 1000010111000000
          472 callsubr
        </CharString>
        <CharString name="Etalenisacuteiotasub">
          401 callsubr
          8 -20 22 -20 hstemhm
          -297 105 301 318 callsubr
          hintmask 0111000100011000
          24 32 -30 callgsubr
          hintmask 0110100100011000
          234 callgsubr
          hintmask 0111000100011000
          -95 callsubr
          hintmask 0111001000011000
          -1 -53 rlineto
          hintmask 0111010000011000
          130 callgsubr
          hintmask 0111000100011000
          206 222 callsubr
          -518 vlineto
          hintmask 0111000100011000
          -29 callgsubr
          -203 399 rmoveto
          61 -24 rlineto
          hintmask 0111000010011000
          110 68 callgsubr
          563 188 callgsubr
          hintmask 1001000100011000
          -43 callsubr
          hintmask 0111000010011000
          97 callsubr
          hintmask 0111000001111000
          -792 678 -54 callgsubr
        </CharString>
        <CharString name="Etalenisgrave">
          202 callsubr
          -324 105 328 318 callsubr
          hintmask 1000100011000000
          24 32 -30 callgsubr
          hintmask 0100100011000000
          234 callgsubr
          hintmask 1000100011000000
          -95 callsubr
          hintmask 1001000011000000
          -1 -53 rlineto
          hintmask 1010000011000000
          130 callgsubr
          hintmask 1000100011000000
          206 222 callgsubr
          -518 vlineto
          hintmask 1000100011000000
          -29 callgsubr
          -218 572 129 callsubr
          hintmask 1000010111000000
          110 callsubr
          -192 -182 rmoveto
          35 -48 rlineto
          hintmask 1000001111000000
          77 34 52 12 callgsubr
          hintmask 1000010111000000
          407 callsubr
        </CharString>
        <CharString name="Etalenisgraveiotasub">
          401 callsubr
          8 -20 22 -20 hstemhm
          -324 105 328 318 callsubr
          hintmask 0111000100011000
          24 32 -30 callgsubr
          hintmask 0110100100011000
          234 callgsubr
          hintmask 0111000100011000
          -95 callsubr
          hintmask 0111001000011000
          -1 -53 rlineto
          hintmask 0111010000011000
          130 callgsubr
          hintmask 0111000100011000
          206 222 callsubr
          -518 vlineto
          hintmask 0111000100011000
          -29 callgsubr
          -218 572 129 callsubr
          hintmask 0111000010011000
          110 callsubr
          628 249 callsubr
          hintmask 1001000100011000
          -43 callsubr
          hintmask 0111000010011000
          97 callsubr
          hintmask 0111000001111000
          -820 138 callgsubr
        </CharString>
        <CharString name="Etalenisiotasub">
          401 callsubr
          10 -20 hstemhm
          -125 105 129 318 callsubr
          hintmask 0111000100110000
          24 32 -30 callgsubr
          hintmask 0110100100110000
          234 callgsubr
          hintmask 0111000100110000
          -95 callsubr
          hintmask 0111001000110000
          -1 -53 rlineto
          hintmask 0111010000110000
          130 callgsubr
          hintmask 0111000100110000
          -16 callgsubr
          hintmask 0111001000110000
          -1 -53 rlineto
          hintmask 0111010000110000
          -3 callgsubr
          hintmask 0111000100110000
          394 callsubr
          hintmask 1001000100110000
          -43 callsubr
          hintmask 0111000100110000
          97 callsubr
          hintmask 0111000011110000
          -620 678 -54 callgsubr
        </CharString>
        <CharString name="Etalenistilde">
          204 0 414 callgsubr
          -249 105 253 318 callsubr
          hintmask 1010000100011000
          24 32 -30 callgsubr
          hintmask 0110000100011000
          234 callgsubr
          hintmask 1010000100011000
          -95 callsubr
          hintmask 1010001000011000
          -1 -53 rlineto
          hintmask 1010010000011000
          130 callgsubr
          hintmask 1010000100011000
          -16 callgsubr
          hintmask 1010001000011000
          -1 -53 rlineto
          hintmask 1010010000011000
          -3 callgsubr
          hintmask 1010000100011000
          -29 callgsubr
          hintmask 1001000010011000
          -129 471 145 callsubr
          hintmask 1010000001011000
          -53 20 rlineto
          hintmask 1010100000011000
          -36 callgsubr
          hintmask 1001000100011000
          296 callsubr
          hintmask 1001000010011000
          144 callsubr
          hintmask 1010000100111000
          -202 -224 -97 callgsubr
          endchar
        </CharString>
        <CharString name="Etalenistildeiotasub">
          204 -223 192 -171 -21 164 28 31 414 callgsubr
          -249 105 253 318 callsubr
          hintmask 0111010000100011
          24 32 -30 callgsubr
          hintmask 0110110000100011
          234 callgsubr
          hintmask 0111010000100011
          -95 callsubr
          hintmask 0111010001000011
          -1 -53 rlineto
          hintmask 0111010010000011
          130 callgsubr
          hintmask 0111010000100011
          -16 callgsubr
          hintmask 0111010001000011
          -1 -53 rlineto
          hintmask 0111010010000011
          -3 callgsubr
          hintmask 0111010000100011
          -29 callgsubr
          hintmask 0111001000010011
          -129 471 145 callsubr
          hintmask 0111010000001011
          -53 20 rlineto
          hintmask 0111010100000011
          -36 callgsubr
          hintmask 0111001000100011
          296 callsubr
          hintmask 0111001000010011
          144 callsubr
          hintmask 0111010000100011
          542 -726 -43 callgsubr
          hintmask 1001010000100011
          -43 callsubr
          hintmask 0111010000100011
          97 callsubr
          hintmask 0111010000100111
          -744 502 -97 callgsubr
          endchar
        </CharString>
        <CharString name="Etawithtonos">
          -51 callgsubr
          -217 398 rmoveto
          61 -23 rlineto
          hintmask 10000111
          -68 callsubr
          endchar
        </CharString>
        <CharString name="Eth">
          13 callsubr
        </CharString>
        <CharString name="Euro">
          18 -22 115 108 71 -25 25 64 71 -25 25 42 221 -102 102 hstemhm
          85 175 hintmask 11010011
          447 -22 rmoveto
          185 75 -27 79 -146 -39 -92 6 -56 40 -28 62 rlinecurve
          211 hlineto
          hintmask 10110011
          675 callgsubr
          -264 hlineto
          -2 16 -1 17 18 4 0 5 4 vvcurveto
          274 hlineto
          hintmask 11001011
          675 callgsubr
          -298 hlineto
          14 68 32 56 46 37 48 4 48 -10 47 -23 rrcurveto
          hintmask 11010101
          15 -90 rlineto
          81 hlineto
          hintmask 11010011
          15 41 12 55 8 63 rrcurveto
          -1 hlineto
          39 -51 -73 23 -81 hhcurveto
          -190 -109 -123 -140 -34 hvcurveto
          -59 hlineto
          -39 -46 6 -25 rlineto
          82 hlineto
          -1 -8 0 -9 -8 vvcurveto
          -13 1 -13 1 -13 vhcurveto
          -73 hlineto
          -40 -46 6 -25 rlineto
          121 hlineto
          35 -120 101 -107 210 4 rrcurveto
          endchar
        </CharString>
        <CharString name="F">
          8 0 53 -53 72 -72 76 183 233 callsubr
          94.5 208 -93.5 93.5 434 callsubr
          hstemhm
          103 644 callsubr
          403 hintmask 1001000110000000
          29 609 rmoveto
          hintmask 0011001010000000
          74 -11 rlineto
          -522 vlineto
          hintmask 1001010010000000
          -29 -13 -26 -15 -24 -16 6 -32 rcurveline
          375 363 callsubr
          hintmask 0101010010000000
          -122 19 rlineto
          192 vlineto
          hintmask 1001010001000000
          222 -10 rlineto
          114 vlineto
          hintmask 1001010010000000
          -222 -17 rlineto
          223 vlineto
          161 -11 664 callgsubr
          19 -109 rlineto
          100 hlineto
          hintmask 1001010010000000
          14 66 7 95 -3 44 1 3 rcurveline
          -553 hlineto
          endchar
        </CharString>
        <CharString name="G">
          261 callgsubr
          hstemhm
          11 181 261 163 hintmask 1000101110000000
          580 callgsubr
          hintmask 1010001110000000
          170 vlineto
          hintmask 1001001110000000
          76 19 rlineto
          hintmask 0100101110000000
          305 callgsubr
          hintmask 1000101110000000
          187 callgsubr
          hintmask 1000110110000000
          31 -121 rlineto
          107 hlineto
          hintmask 1000101110000000
          181 callsubr
          endchar
        </CharString>
        <CharString name="Gamma">
          -31 0 53 -53 72 -72 79 378 205 -33 callgsubr
          28 callsubr
          hintmask 10000011
          584 callsubr
          hintmask 00100101
          545 callsubr
          hintmask 10001001
          -80 callsubr
          381 363 callsubr
          hintmask 01001001
          -122 19 rlineto
          501 vlineto
          157 -11 rlineto
          hintmask 10010001
          18 -105 rlineto
          100 hlineto
          hintmask 10001001
          14 68 6 94 -2 43 rrcurveto
          -548 hlineto
          endchar
        </CharString>
        <CharString name="Gbreve">
          261 callgsubr
          40 91 -91 160 hstemhm
          11 181 -5 99 603 callsubr
          -73 163 hintmask 1000101101001000
          580 callgsubr
          hintmask 1010001101001000
          170 vlineto
          hintmask 1001001101001000
          76 19 rlineto
          hintmask 0100101101001000
          305 callgsubr
          hintmask 1000101101001000
          187 callgsubr
          hintmask 1000110101001000
          31 -121 rlineto
          107 hlineto
          hintmask 1000101101001000
          181 callsubr
          hintmask 1000101100110000
          -34 742 425 callsubr
          hintmask 1000101011010000
          -111 2 rlineto
          hintmask 1000101101010000
          489 callsubr
          hintmask 1000101010101000
          379 callsubr
          hintmask 1000101100110000
          461 callsubr
        </CharString>
        <CharString name="Gcommaaccent">
          261 callgsubr
          hstemhm
          11 181 124 124 13 163 hintmask 1000101101000000
          580 callgsubr
          hintmask 1010001101000000
          170 vlineto
          hintmask 1001001101000000
          76 19 rlineto
          hintmask 0100101101000000
          305 callgsubr
          hintmask 1000101101000000
          187 callgsubr
          hintmask 1000110101000000
          31 -121 rlineto
          107 hlineto
          hintmask 1000101101000000
          181 callsubr
          hintmask 1000101111000000
          -110 -257 -66 callsubr
        </CharString>
        <CharString name="H">
          17 callsubr
        </CharString>
        <CharString name="I">
          -28 callgsubr
          hstemhm
          109 181 hintmask 10001010
          32 609 85 callgsubr
        </CharString>
        <CharString name="Iacute">
          -28 callgsubr
          hstemhm
          109 181 hintmask 10000110
          59 103 callsubr
          hintmask 10001010
          -271 -301 85 callgsubr
        </CharString>
        <CharString name="Icircumflex">
          577 callsubr
          -79 926 -329 273 callgsubr
          hintmask 10000101
          32 609 rmoveto
          hintmask 00101001
          -3 callgsubr
          hintmask 10000011
          -44 callgsubr
          hintmask 01000011
          -90 callgsubr
          -46 99 rmoveto
          62 -57 151 114 157 -114 59 57 rlineto
          hintmask 00010001
          -155 165 rlineto
          -120 hlineto
          endchar
        </CharString>
        <CharString name="Idieresis">
          -28 callgsubr
          hstemhm
          109 181 hintmask 10001010
          32 609 rmoveto
          hintmask 00110010
          -3 callgsubr
          hintmask 10000110
          -44 callgsubr
          hintmask 01000110
          -90 callgsubr
          55 64 -95 callgsubr
          endchar
        </CharString>
        <CharString name="Idotaccent">
          -28 callgsubr
          hstemhm
          109 181 hintmask 10001010
          32 609 rmoveto
          hintmask 00110010
          -3 callgsubr
          hintmask 10000110
          -44 callgsubr
          hintmask 01000110
          -90 callgsubr
          180 64 31 callgsubr
        </CharString>
        <CharString name="Igrave">
          -28 callgsubr
          hstemhm
          109 181 hintmask 10000110
          304 288 callsubr
          hintmask 10001010
          -272 -77 85 callgsubr
        </CharString>
        <CharString name="Imacron">
          -213 -20 callsubr
          70 99 -53 53 28 callsubr
          hintmask 1000011010000000
          27 806 434 callgsubr
          308 hlineto
          hintmask 1000010110000000
          47 46 rlineto
          hintmask 1000011010000000
          -5 53 rlineto
          -243 hlineto
          -31 -43 -5 -20 -39 hvcurveto
          hintmask 1000101010000000
          5 -197 rmoveto
          hintmask 0011001010000000
          -3 callgsubr
          hintmask 1000011010000000
          -44 callgsubr
          hintmask 0100011010000000
          138 callsubr
        </CharString>
        <CharString name="Iogonek">
          -220 658 callsubr
          217 53 -53 83 callsubr
          hstemhm
          47 119 -57 181 hintmask 0101010010000000
          32 609 rmoveto
          hintmask 0101100010000000
          77 -12 rlineto
          -518 4 callgsubr
          182 hlineto
          hintmask 1001001100000000
          -109 -46 -56 -65 -61 vvcurveto
          545 callgsubr
          hintmask 0101001010000000
          662 callgsubr
          hintmask 1001001100000000
          377 callsubr
          51 53 43 76 46 vhcurveto
          hintmask 0101001010000000
          85 hlineto
          hintmask 0110001010000000
          1 53 138 callsubr
        </CharString>
        <CharString name="Iota">
          -28 callgsubr
          hstemhm
          109 181 hintmask 10001010
          32 609 85 callgsubr
        </CharString>
        <CharString name="Iotaacute">
          -28 callgsubr
          8 -20 28 callsubr
          hintmask 10000101
          -193 383 callsubr
          hintmask 10000011
          420 callsubr
          hintmask 10001001
          172 -61 rmoveto
          hintmask 00110001
          -3 callgsubr
          hintmask 10000101
          -44 callgsubr
          hintmask 01000101
          138 callsubr
        </CharString>
        <CharString name="Iotaasper">
          -28 callgsubr
          10 -20 hstemhm
          -183 0 callgsubr
          136 181 hintmask 1000100001000000
          32 609 rmoveto
          hintmask 0011000001000000
          -3 callgsubr
          hintmask 1000010001000000
          -44 callgsubr
          hintmask 0100010011000000
          -90 callgsubr
          -88 -255 rmoveto
          hintmask 1000010101000000
          94 callgsubr
          hintmask 1000001011000000
          123 callgsubr
          hintmask 0100010011000000
          -63 callsubr
          endchar
        </CharString>
        <CharString name="Iotaasperacute">
          -28 callgsubr
          8 628 callgsubr
          -370 0 callgsubr
          323 181 hintmask 1000010000100000
          -180 383 callsubr
          hintmask 1000001001100000
          305 callsubr
          hintmask 1000010010100000
          94 callgsubr
          hintmask 1000000101100000
          123 callgsubr
          hintmask 1000001001100000
          -63 callsubr
          hintmask 1000100000100000
          274 202 rmoveto
          hintmask 0011000000100000
          -3 callgsubr
          hintmask 1000010000100000
          -44 callgsubr
          hintmask 0100010000100000
          138 callsubr
        </CharString>
        <CharString name="Iotaaspergrave">
          -28 callgsubr
          8 628 callgsubr
          -378 0 callgsubr
          331 181 hintmask 1000010000100000
          -195 198 callgsubr
          hintmask 1000001001100000
          110 callsubr
          511 callsubr
          hintmask 1000010010100000
          312 callgsubr
          hintmask 1000000101100000
          -68 callgsubr
          hintmask 1000001001100000
          -63 callsubr
          hintmask 1000100000100000
          282 202 rmoveto
          hintmask 0011000000100000
          -3 callgsubr
          hintmask 1000010000100000
          -44 callgsubr
          hintmask 0100010000100000
          138 callsubr
        </CharString>
        <CharString name="Iotaaspertilde">
          577 callsubr
          418 128 callgsubr
          -308 0 callgsubr
          261 181 hintmask 1001010000000100
          445 callgsubr
          hintmask 0101000010000100
          422 callgsubr
          hintmask 1001000001000100
          -6 32 rlineto
          -336 hlineto
          hintmask 1001000100000100
          -1 -53 rlineto
          hintmask 0011001000000100
          -3 callgsubr
          hintmask 1001010000000100
          -29 callgsubr
          hintmask 1000100001000100
          -130 471 145 callsubr
          hintmask 1001000000100100
          -53 20 rlineto
          hintmask 1001010000000100
          -36 callgsubr
          hintmask 1000100000000100
          296 callsubr
          hintmask 1000100001000100
          144 callsubr
          hintmask 1001010000001100
          -74 -271 rmoveto
          hintmask 1001010000010100
          207 callgsubr
          hintmask 1001010000001100
          -6 callsubr
        </CharString>
        <CharString name="Iotabreve">
          -28 callgsubr
          60 91 -91 160 hstemhm
          33 99 -23 181 -29 111 hintmask 1000011010100000
          206 722 425 callsubr
          hintmask 1000010100100000
          -111 2 rlineto
          hintmask 1000011000100000
          489 callsubr
          hintmask 1000010110000000
          379 callsubr
          hintmask 1000011010100000
          -103 11 74 -54 88 hhcurveto
          hintmask 1000101001000000
          -174 -113 rmoveto
          hintmask 0011001001000000
          -3 callgsubr
          hintmask 1000011001000000
          -44 callgsubr
          hintmask 0100011001000000
          138 callsubr
        </CharString>
        <CharString name="Iotadieresis">
          -28 callgsubr
          hstemhm
          109 181 hintmask 10000110
          89 727 -95 callgsubr
          hintmask 10001010
          -300 -118 85 callgsubr
        </CharString>
        <CharString name="Iotagrave">
          -28 callgsubr
          8 -20 28 callsubr
          hintmask 10001001
          32 609 rmoveto
          hintmask 00110001
          -3 callgsubr
          hintmask 10000101
          -44 callgsubr
          hintmask 01000101
          -90 callgsubr
          -230 -58 488 callsubr
          hintmask 10000011
          17 callgsubr
          -24 -19 rlinecurve
          endchar
        </CharString>
        <CharString name="Iotalenis">
          -28 callgsubr
          10 -20 hstemhm
          -126 105 130 181 hintmask 1000010110000000
          -184 455 rmoveto
          35 -48 rlineto
          hintmask 1000001110000000
          183 callgsubr
          hintmask 1000010110000000
          111 callsubr
          679 callgsubr
          216 154 rmoveto
          hintmask 0011000110000000
          -3 callgsubr
          hintmask 1000010110000000
          -44 callgsubr
          hintmask 0100010110000000
          138 callsubr
        </CharString>
        <CharString name="Iotalenisacute">
          -28 callgsubr
          8 628 callgsubr
          -298 105 302 181 hintmask 1000010001000000
          -180 431 rmoveto
          61 -24 rlineto
          hintmask 1000001011000000
          441 callgsubr
          hintmask 1000000111000000
          183 callgsubr
          hintmask 1000001011000000
          111 callsubr
          hintmask 1000100001000000
          388 154 rmoveto
          hintmask 0011000001000000
          -3 callgsubr
          hintmask 1000010001000000
          -44 callgsubr
          hintmask 0100010001000000
          138 callsubr
        </CharString>
        <CharString name="Iotalenisgrave">
          -28 callgsubr
          8 628 callgsubr
          -325 105 329 181 hintmask 1000100001000000
          32 609 rmoveto
          hintmask 0011000001000000
          -3 callgsubr
          hintmask 1000010001000000
          -44 callgsubr
          hintmask 0100010001000000
          -90 callgsubr
          -228 -58 129 callsubr
          hintmask 1000001011000000
          110 callsubr
          -192 -182 rmoveto
          35 -48 rlineto
          hintmask 1000000111000000
          77 34 52 12 callgsubr
          hintmask 1000001011000000
          407 callsubr
        </CharString>
        <CharString name="Iotalenistilde">
          577 callsubr
          418 128 callgsubr
          -250 105 254 181 hintmask 1001010000001000
          445 callgsubr
          hintmask 0101000010001000
          422 callgsubr
          hintmask 1001000001001000
          -6 32 rlineto
          -336 hlineto
          hintmask 1001000100001000
          -1 -53 rlineto
          hintmask 0011001000001000
          -3 callgsubr
          hintmask 1001010000001000
          -29 callgsubr
          hintmask 1000100001001000
          -130 471 145 callsubr
          hintmask 1001000000101000
          -53 20 rlineto
          hintmask 1001010000001000
          -36 callgsubr
          hintmask 1000100000001000
          296 callsubr
          hintmask 1000100001001000
          144 callsubr
          hintmask 1001010000011000
          -202 -224 -97 callgsubr
          endchar
        </CharString>
        <CharString name="Iotawithmacron">
          -28 callgsubr
          80 99 -53 53 28 callsubr
          hintmask 1000011010000000
          2 816 431 callsubr
          hintmask 1000010110000000
          47 46 rlineto
          hintmask 1000011010000000
          265 callsubr
          hintmask 1000101010000000
          30 -207 rmoveto
          hintmask 0011001010000000
          -3 callgsubr
          hintmask 1000011010000000
          -44 callgsubr
          hintmask 0100011010000000
          138 callsubr
        </CharString>
        <CharString name="Iotawithtonos">
          -28 callgsubr
          8 -20 28 callsubr
          hintmask 10001001
          32 609 rmoveto
          hintmask 00110001
          -3 callgsubr
          hintmask 10000101
          -44 callgsubr
          hintmask 01000101
          -90 callgsubr
          -227 -232 rmoveto
          61 -23 rlineto
          hintmask 10000011
          -68 callsubr
          endchar
        </CharString>
        <CharString name="J">
          -219 595 67 435 callgsubr
          hstemhm
          119 180 hintmask 01010000
          584 callsubr
          hintmask 10010000
          85 -14 rlineto
          -449 vlineto
          -162 -59 -62 -85 -53 vhcurveto
          35 -57 rlineto
          170 58 119 83 200 vvcurveto
          hintmask 00110000
          430 vlineto
          32 14 29 16 24 17 -6 32 rcurveline
          -343 hlineto
          endchar
        </CharString>
        <CharString name="K">
          40 callsubr
        </CharString>
        <CharString name="KORONIS">
          551 callsubr
          265 hstem
          135 105 vstem
          77 578 -97 callgsubr
          endchar
        </CharString>
        <CharString name="Kappa">
          40 callsubr
        </CharString>
        <CharString name="Kcommaaccent">
          128 0 53 556 245 callgsubr
          68 124 hintmask 10111000
          196 callgsubr
          hintmask 11011000
          -1 -53 65 -10 -209 -225 rlineto
          hintmask 10111000
          209 58 callgsubr
          -518 vlineto
          hintmask 10111000
          -29 callgsubr
          302 -309 -66 callsubr
        </CharString>
        <CharString name="L">
          228 callgsubr
          164 callsubr
          endchar
        </CharString>
        <CharString name="Lacute">
          228 callgsubr
          hintmask 01001100
          72 103 callsubr
          hintmask 01010100
          -284 -301 rmoveto
          hintmask 10100100
          77 -12 rlineto
          -518 vlineto
          hintmask 01001100
          23 callsubr
          endchar
        </CharString>
        <CharString name="Lamda">
          105 0 53 hstem
          -20 762 vstem
          263 646 rmoveto
          15 -40 -214 -528 -31 -14 -28 -15 -25 -17 rlinecurve
          37 callgsubr
          280 27 callgsubr
          -87 14 150 400 146 -390 -29 -14 -27 -14 -24 -17 rlinecurve
          37 callgsubr
          339 27 callgsubr
          -72 11 -251 622 rlineto
          endchar
        </CharString>
        <CharString name="Lcaron">
          -6 428 callgsubr
          233.5 -20 133 273 callgsubr
          196 129 hintmask 01101011
          32 609 rmoveto
          hintmask 10110011
          -3 callgsubr
          hintmask 01100111
          23 callsubr
          402 -178 72 callsubr
        </CharString>
        <CharString name="Lcommaaccent">
          228 callgsubr
          -12 124 164 callsubr
          hintmask 01001010
          213 -939 -66 callsubr
        </CharString>
        <CharString name="Lslash">
          9 428 callgsubr
          346.5 134 callgsubr
          hstemhm
          124 181 hintmask 01010100
          47 609 rmoveto
          hintmask 10100100
          77 -12 rlineto
          -273 vlineto
          -100 -47 29 -61 71 33 rlineto
          -170 151 callgsubr
          240 vlineto
          113 53 15 52 -16 24 -112 -53 rlineto
          174 -100 callgsubr
          endchar
        </CharString>
        <CharString name="M">
          3 callsubr
        </CharString>
        <CharString name="Mu">
          3 callsubr
        </CharString>
        <CharString name="N">
          102 callsubr
          24 32 -54 callsubr
          endchar
        </CharString>
        <CharString name="NULL">
          -175 endchar
        </CharString>
        <CharString name="Nacute">
          102 callsubr
          233 103 callsubr
          -453 -878 -54 callsubr
          endchar
        </CharString>
</ttFont>
